<svg xmlns="http://www.w3.org/2000/svg" width="174" height="229" viewBox="0 0 174 229" fill="none">
  <path opacity="0.3" fill-rule="evenodd" clip-rule="evenodd" d="M86.7665 37.5938C119.392 37.7803 149.138 59.5173 158.47 92.6868C167.206 123.736 149.144 153.387 124.882 173.067C98.0901 194.8 63.1098 212.802 35.2477 192.641C5.51853 171.129 0.679645 127.861 12.6442 91.853C23.6783 58.6455 53.5806 37.404 86.7665 37.5938Z" fill="#EFFF37"/>
  <path opacity="0.3" fill-rule="evenodd" clip-rule="evenodd" d="M31.6171 3.42702C41.1256 4.87369 48.7124 12.2602 49.7698 21.9907C50.7597 31.0992 44.0019 38.6692 35.936 43.1692C27.0289 48.1384 15.9203 51.7081 8.80403 44.8455C1.21089 37.5231 1.97126 25.1434 7.26929 15.5245C12.1553 6.6536 21.9451 1.95548 31.6171 3.42702Z" fill="#EFFF37"/>
  <mask id="mask0_149_126" style="mask-type:alpha" maskUnits="userSpaceOnUse" x="6" y="91" width="155" height="111">
    <path fill-rule="evenodd" clip-rule="evenodd" d="M92.6135 145.228C125.239 145.414 127.119 122.092 158.47 92.6868C167.206 123.736 149.144 153.387 124.882 173.067C98.0901 194.8 63.1098 212.802 35.2477 192.641C5.51853 171.129 0.679645 127.861 12.6442 91.8529C39.0148 117.507 59.4276 145.038 92.6135 145.228Z" fill="#EED2B4"/>
  </mask>
  <g mask="url(#mask0_149_126)">
    <path d="M64.8869 27.6159L17.1609 199.384L147.822 203.587L113.765 131.856L72.7818 27.2118C71.3221 23.4846 65.9585 23.7591 64.8869 27.6159Z" fill="#C1931C"/>
  </g>
  <path d="M65.4823 17.9041L26.8228 165.862L122.748 150.23L113.765 131.856L73.4435 17.5711C72.0766 13.6968 66.5208 13.9292 65.4823 17.9041Z" fill="#C1931C"/>
  <path d="M71.2199 72.0703C61.1716 79.1882 55.582 76.9665 50.8501 74.011C50.7883 73.9724 50.7591 73.8983 50.7776 73.8279L65.4837 17.6626C66.5236 13.691 72.074 13.458 73.4432 17.3284L91.7506 69.0812C91.8046 69.2338 91.6297 69.3683 91.4942 69.2797C87.2126 66.481 81.0095 65.1357 71.2199 72.0703Z" fill="#FFFCF2"/>
  <mask id="mask1_149_126" style="mask-type:alpha" maskUnits="userSpaceOnUse" x="6" y="91" width="155" height="111">
    <path fill-rule="evenodd" clip-rule="evenodd" d="M92.6135 145.228C125.239 145.414 127.119 122.092 158.47 92.6868C167.206 123.736 149.144 153.387 124.882 173.067C98.0901 194.8 63.1098 212.802 35.2477 192.641C5.51853 171.129 0.679645 127.861 12.6442 91.8529C39.0148 117.507 59.4276 145.038 92.6135 145.228Z" fill="#C1931C"/>
  </mask>
  <g mask="url(#mask1_149_126)">
    <path d="M120.887 102.102L77.8909 201.184L164.027 202.257C167.023 202.295 169.078 199.251 167.924 196.486L128.555 102.156C127.14 98.7662 122.349 98.7325 120.887 102.102Z" fill="#C1931C"/>
  </g>
  <path d="M121.096 102.939L104.345 147.52H141.327C144.304 147.52 146.321 144.488 145.17 141.742L128.839 102.793C127.381 99.3154 122.422 99.4086 121.096 102.939Z" fill="#C1931C"/>
  <path d="M125.893 135.825C119.296 140.527 113.815 134.835 110.663 132.791C110.599 132.749 110.573 132.671 110.597 132.598L120.825 101.748C122.043 98.0739 127.176 97.9014 128.638 101.486L141.167 132.198C141.23 132.352 141.046 132.504 140.901 132.425C137.909 130.788 132.208 131.324 125.893 135.825Z" fill="white"/>
  <ellipse opacity="0.5" cx="78.941" cy="225.098" rx="61.754" ry="3.41172" fill="#C1931C"/>
  <path d="M43.7951 129.851L44.0297 131.804L45.5876 132.786L43.7367 133.166L42.71 134.896L42.4753 132.944L40.9174 131.961L42.7684 131.581L43.7951 129.851Z" fill="#C1931C"/>
  <path d="M88.277 173.482L88.5117 175.435L90.0696 176.417L88.2186 176.798L87.1919 178.528L86.9572 176.575L85.3994 175.593L87.2503 175.212L88.277 173.482Z" fill="#C1931C"/>
  <path d="M60.6725 147.22L60.9072 149.172L62.4651 150.155L60.6141 150.535L59.5874 152.265L59.3527 150.312L57.7949 149.33L59.6458 148.95L60.6725 147.22Z" fill="#C1931C"/>
  <path d="M76.761 52.6254L78.447 54.5579L80.8247 54.6604L79.1383 56.1825L79.3205 58.6404L77.6345 56.7078L75.2568 56.6054L76.9432 55.0833L76.761 52.6254Z" fill="#C1931C"/>
  <path d="M52.4133 62.6822L53.2855 63.6819L54.5155 63.7349L53.6431 64.5223L53.7373 65.7938L52.8651 64.7941L51.6352 64.7411L52.5075 63.9537L52.4133 62.6822Z" fill="#C1931C"/>
  <path d="M91.5037 13.84L91.561 15.5435L92.8354 16.4886L91.2059 16.7043L90.1887 18.1379L90.1313 16.4344L88.8569 15.4893L90.4865 15.2736L91.5037 13.84Z" fill="#C1931C"/>
  <path d="M143.305 26.3455L143.363 28.049L144.637 28.9941L143.007 29.2098L141.99 30.6434L141.933 28.9399L140.658 27.9948L142.288 27.7791L143.305 26.3455Z" fill="#C1931C"/>
  <path d="M130.925 122.08L131.057 124.541L132.926 125.876L130.577 126.227L129.149 128.323L129.017 125.862L127.147 124.527L129.496 124.176L130.925 122.08Z" fill="#C1931C"/>
  <path d="M29.2288 93.0734L29.1475 94.4527L30.106 95.2943L28.7738 95.3684L27.8449 96.4636L27.9262 95.0843L26.9677 94.2427L28.2999 94.1687L29.2288 93.0734Z" fill="#C1931C"/>
  <path d="M47.6319 126.421L47.5506 127.801L48.5091 128.642L47.1769 128.716L46.248 129.812L46.3292 128.432L45.3708 127.591L46.703 127.517L47.6319 126.421Z" fill="#FFFCF2"/>
  <path d="M70.6358 155.601L70.5545 156.98L71.513 157.822L70.1808 157.896L69.2519 158.991L69.3332 157.612L68.3747 156.77L69.7069 156.696L70.6358 155.601Z" fill="#FFFCF2"/>
  <path d="M69.4419 90.7651L71.1688 91.5637L71.773 95.4065L66.481 96.7192C65.0486 97.0745 63.5302 96.9918 62.1225 96.4819L60.4997 95.8941C59.7034 95.6057 59.1228 94.9064 58.9927 94.0791C58.8278 93.0303 59.4213 92.0293 60.4166 91.6774L63.8011 90.4809C65.6261 89.8356 67.653 89.9378 69.4419 90.7651Z" fill="#FFB997"/>
  <path d="M64.5212 95.6264L65.6818 91.0776C65.8281 90.5041 65.2589 89.9872 64.698 90.1843L60.1705 91.7754C59.2985 92.0819 58.7361 92.9122 58.7736 93.838C58.8106 94.7523 59.4246 95.5591 60.3055 95.8507L62.6459 96.6255C63.4583 96.8944 64.314 96.4385 64.5212 95.6264Z" fill="#FCA378"/>
  <path d="M109.082 85.8978C107.077 76.9632 102.164 67.3199 97.7708 62.1935C96.6254 60.8569 94.6795 60.8034 93.1482 61.5943C92.8505 61.7481 92.5554 61.8927 92.2679 62.0279C90.5477 62.837 89.6299 64.7173 90.2392 66.5433L94.7039 79.9244C96.1695 84.3171 93.3039 88.85 88.7235 89.3845L70.9895 91.4538L71.6796 95.4139L97.3058 97.1196C104.403 97.592 110.635 92.814 109.082 85.8978Z" fill="#FFB997"/>
  <path d="M114.787 192.821L113.577 183.983C107.21 186.123 102.595 185.811 101.084 185.388L101.675 189.704L92.8493 208.239C92.6056 208.751 92.5173 209.325 92.595 209.893L92.6342 210.179C92.6876 210.569 92.8543 210.937 93.1137 211.239C93.8172 212.057 95.0273 212.203 95.8741 211.573L111.975 199.582C114.073 198.019 115.146 195.441 114.787 192.821Z" fill="#25223A"/>
  <path d="M113.555 183.824L112.376 175.215L99.8828 176.62L101.062 185.229C105.349 186.43 111.177 184.793 113.555 183.824Z" fill="#FFB997"/>
  <path d="M100.641 182.39L113.263 180.971L113.558 184.096C108.023 186.204 102.86 185.856 101.067 185.5L100.641 182.39Z" fill="white"/>
  <path d="M117.881 169.092L114.579 114.587L82.3891 115.453L92.5033 171.945L117.881 169.092Z" fill="#FBD601"/>
  <path d="M114.512 113.338L82.1143 113.166L83.0913 120.301L114.851 118.549L114.512 113.338Z" fill="#FBD601"/>
  <rect width="25.7001" height="1.84668" rx="0.923338" transform="matrix(-0.993741 0.111709 0.135668 0.990754 117.95 167.997)" fill="#FBD601"/>
  <rect width="26.3228" height="5.79282" rx="1.47848" transform="matrix(-0.993741 0.111709 0.135668 0.990754 118.227 168.729)" fill="#FBD601"/>
  <path d="M95.774 198.046L96.5093 188.406C90.4416 189.447 86.413 188.366 85.1572 187.696L84.8253 192.047L74.9081 210.884C74.672 211.333 74.5303 211.824 74.4919 212.327L74.4509 212.864C74.4275 213.171 74.4872 213.477 74.6237 213.75C75.0852 214.674 76.2646 214.966 77.1233 214.369L92.571 203.625C94.4251 202.335 95.6034 200.283 95.774 198.046Z" fill="#25223A"/>
  <path d="M96.5211 188.246L97.1831 179.567L85.8311 178.857L85.1691 187.535C88.731 189.437 94.2213 188.802 96.5211 188.246Z" fill="#FFB997"/>
  <path d="M85.3601 184.668L96.8284 185.386L96.4706 188.514C91.1469 189.663 86.6393 188.454 85.1209 187.803L85.3601 184.668Z" fill="white"/>
  <path d="M103.276 174.458L111.157 120.21L82.4528 115.668L80.2171 173.014L103.276 174.458Z" fill="#FFE658"/>
  <path d="M112.672 111.046L82.5905 115.741L82.1825 121.09L110.569 124.35L112.672 111.046Z" fill="#FBD601"/>
  <rect width="23.2515" height="1.84973" rx="0.924866" transform="matrix(-0.998045 -0.0624966 -0.0760574 0.997103 103.555 173.391)" fill="#FFE658"/>
  <rect width="23.8149" height="5.80241" rx="1.47848" transform="matrix(-0.998045 -0.0624966 -0.0760574 0.997103 103.656 174.159)" fill="#FFE658"/>
  <path d="M114.48 107.54C112.39 81.7201 107.863 67.1215 102.008 59.7382C100.887 58.3251 98.8684 58.2861 97.2485 59.0789C94.7969 60.2787 92.6532 60.5646 90.7724 61.649C83.9077 66.3484 82.459 90.8513 81.5348 109.519C81.3095 114.069 85.2083 117.755 89.7387 117.273L107.956 115.335C111.883 114.918 114.798 111.476 114.48 107.54Z" fill="#060644"/>
  <path d="M114.672 107.177L112.901 93.538C114.857 122.374 100.709 111.879 94.9585 116.673L108.009 115.491C112.187 115.112 115.213 111.337 114.672 107.177Z" fill="black"/>
  <path d="M99.744 60.1899C94.4736 66.7088 89.1167 80.3373 113.132 89.3696" stroke="#FF6E6C" stroke-width="8.33396" stroke-linecap="round"/>
  <path d="M121.082 72.5953C123.858 81.2883 124.622 89.0673 121.082 89.995C119.535 90.4005 115.185 92.3637 113.362 90.4118C111.522 87.4938 109.828 80.8475 108.266 75.9546C106.942 71.8088 105.602 67.6578 105.771 64.5671C105.956 61.1771 108.29 60.2585 110.141 59.7733C113.681 58.8457 118.307 63.9024 121.082 72.5953Z" fill="#FF6E6C"/>
  <path d="M119.112 90.6201C113.138 91.5867 113.299 87.5326 110.233 81.2852C110.144 81.1044 109.903 81.2027 109.964 81.3946L111.934 87.589C112.736 90.1108 115.364 91.5712 117.929 90.9205L119.112 90.6201Z" fill="#FF2E2C"/>
  <line x1="1.25009" y1="-1.25009" x2="139.827" y2="-1.25009" transform="matrix(0.16958 -0.960302 1.01153 0.146639 42.0042 206.088)" stroke="#25223A" stroke-width="2.50019" stroke-linecap="round"/>
  <path d="M61.7363 100.615L63.2547 101.125L64.3486 104.878L59.5374 106.639C57.9865 107.207 56.2737 107.3 54.6566 106.904L53.2904 106.57C52.4107 106.355 51.7235 105.727 51.4897 104.925C51.1869 103.887 51.709 102.797 52.7497 102.296L55.4531 100.993C57.3907 100.059 59.6752 99.9219 61.7363 100.615Z" fill="#FFB997"/>
  <path d="M57.1809 105.81L57.7509 101.155C57.8197 100.593 57.17 100.189 56.6216 100.452L52.5079 102.424C51.5905 102.864 51.082 103.786 51.2414 104.721C51.3939 105.615 52.1267 106.337 53.0933 106.546L55.2938 107.02C56.1953 107.214 57.0783 106.648 57.1809 105.81Z" fill="#FCA378"/>
  <path d="M97.3211 94.8164C104.493 86.0954 107.756 69.541 106.036 61.3285C105.788 60.1453 105.112 59.0649 104.008 58.4716C102.075 57.4331 100.243 57.6239 99.257 58.0861C98.7984 58.3011 98.5678 58.7588 98.4275 59.2179L89.7765 87.5235C89.1013 89.7327 87.3597 91.5583 85.0847 92.4417L62.9386 101.041L64.3188 104.876L90.9563 98.4037C93.4037 97.809 95.7598 96.7152 97.3211 94.8164Z" fill="#FFB997"/>
  <path fill-rule="evenodd" clip-rule="evenodd" d="M100.298 24.6946C103.917 24.8132 107.818 22.4511 110.921 24.1091C114.018 25.7639 113.345 30.0055 115.296 32.708C117.721 36.0683 122.843 37.8546 123.675 41.7773C124.561 45.9532 123.253 50.8668 119.764 53.7742C116.3 56.661 110.846 55.9728 106.121 56.4067C102.214 56.7655 98.2469 57.341 94.5816 56.0866C91.0653 54.8833 88.7999 52.0692 86.2486 49.6059C83.6155 47.0636 80.4358 44.7939 79.4292 41.4571C78.3669 37.9356 78.8007 34.0782 80.5724 30.7896C82.3288 27.5294 85.3166 24.5832 89.1596 23.3958C92.7697 22.2803 96.4788 24.5694 100.298 24.6946Z" fill="#25223A"/>
  <ellipse cx="8.20076" cy="7.4303" rx="8.20076" ry="7.4303" transform="matrix(-1 0 0 1 103.575 42.196)" fill="#FFB997"/>
  <path d="M101.758 45.0076C104.639 47.6182 104.816 55.9321 95.7733 57.0567C98.433 55.8518 102.866 52.0362 101.758 45.0076Z" fill="#FCA378"/>
  <path d="M44.5632 203.178C44.5583 203.189 44.5282 203.244 44.371 203.3C44.2146 203.356 43.9817 203.394 43.675 203.394C43.0652 203.393 42.2573 203.246 41.4069 202.938C40.5566 202.629 39.8596 202.231 39.4181 201.85C39.1961 201.658 39.0558 201.486 38.9853 201.347C38.9144 201.208 38.9347 201.149 38.9397 201.138C38.9446 201.127 38.9746 201.072 39.1318 201.016C39.2882 200.959 39.5212 200.922 39.8278 200.922C40.4377 200.922 41.2456 201.07 42.0959 201.378C42.9462 201.686 43.6432 202.085 44.0848 202.466C44.3068 202.658 44.447 202.83 44.5175 202.969C44.5884 203.108 44.5681 203.166 44.5632 203.178Z" stroke="#25223A" stroke-width="0.833396"/>
  <path d="M44.6381 199.935C44.6381 199.935 44.6376 199.935 44.6363 199.936C44.6373 199.935 44.638 199.935 44.6381 199.935ZM44.597 199.886C44.6115 199.914 44.6183 199.934 44.6215 199.947C44.6093 199.954 44.5891 199.965 44.557 199.976C44.4603 200.011 44.3047 200.037 44.0878 200.037C43.6574 200.037 43.0785 199.933 42.4642 199.71C41.8499 199.487 41.3514 199.201 41.0398 198.932C40.8827 198.796 40.7903 198.68 40.7467 198.594C40.7322 198.566 40.7254 198.546 40.7221 198.533C40.7344 198.525 40.7546 198.515 40.7867 198.504C40.8834 198.469 41.039 198.442 41.2559 198.443C41.6863 198.443 42.2652 198.547 42.8795 198.77C43.4938 198.993 43.9923 199.279 44.3039 199.548C44.461 199.683 44.5534 199.8 44.597 199.886ZM40.7196 198.514C40.7197 198.514 40.7197 198.514 40.7195 198.516C40.7194 198.514 40.7195 198.514 40.7196 198.514ZM40.7056 198.545C40.7056 198.545 40.7061 198.545 40.7074 198.543C40.7064 198.545 40.7057 198.545 40.7056 198.545ZM44.6242 199.964C44.6243 199.965 44.6242 199.966 44.6241 199.966C44.624 199.966 44.624 199.965 44.6242 199.964Z" stroke="#25223A" stroke-width="0.833396"/>
</svg>