<svg xmlns="http://www.w3.org/2000/svg" width="212" height="229" viewBox="0 0 212 229" fill="none">
  <path opacity="0.3" fill-rule="evenodd" clip-rule="evenodd" d="M37.8654 84.3795C21.3093 110.782 23.7327 145.98 45.8968 170.617C66.644 193.68 99.979 194.413 128.39 185.004C159.763 174.614 192.3 155.697 190.192 122.83C187.943 87.7612 155.274 61.5369 119.898 52.6072C87.2736 44.372 54.7061 57.5236 37.8654 84.3795Z" fill="#E8FE91"/>
  <path opacity="0.3" fill-rule="evenodd" clip-rule="evenodd" d="M172.871 53.8372C179.154 47.1383 179.52 35.9285 173.081 26.1779C167.054 17.0507 156.175 13.7202 146.573 14.0131C135.97 14.3366 124.706 17.2129 124.314 27.6655C123.896 38.8187 133.718 50.0418 144.995 56.1199C155.394 61.7252 166.479 60.6511 172.871 53.8372Z" fill="#E8FE91"/>
  <path d="M143.774 125.758L143.57 127.626L142.22 128.565L143.824 128.929L144.714 130.583L144.917 128.716L146.267 127.776L144.663 127.413L143.774 125.758Z" fill="#E8FE91"/>
  <path d="M108.762 146.27L108.558 148.137L107.208 149.077L108.812 149.441L109.702 151.095L109.906 149.228L111.256 148.288L109.652 147.924L108.762 146.27Z" fill="#E8FE91"/>
  <path d="M128.451 60.7696L126.99 62.6179L124.929 62.7159L126.391 64.1718L126.233 66.5226L127.694 64.6742L129.754 64.5762L128.293 63.1204L128.451 60.7696Z" fill="#E8FE91"/>
  <path d="M63.5273 46.627L63.4776 48.2564L62.3732 49.1603L63.7854 49.3667L64.6669 50.7378L64.7166 49.1085L65.821 48.2046L64.4088 47.9982L63.5273 46.627Z" fill="#E8FE91"/>
  <path d="M42.3081 92.603L42.2584 94.2323L41.154 95.1363L42.5662 95.3426L43.4477 96.7138L43.4974 95.0845L44.6018 94.1805L43.1896 93.9742L42.3081 92.603Z" fill="#E8FE91"/>
  <path d="M136.448 42.0252L136.398 43.6546L135.293 44.5585L136.706 44.7649L137.587 46.136L137.637 44.5067L138.741 43.6028L137.329 43.3964L136.448 42.0252Z" fill="#E8FE91"/>
  <path d="M181.666 80.5987L181.736 81.918L180.906 82.7229L182.06 82.7938L182.865 83.8413L182.795 82.5221L183.625 81.7171L182.471 81.6463L181.666 80.5987Z" fill="#E8FE91"/>
  <g opacity="0.5">
    <ellipse cx="64.8315" cy="2.8945" rx="64.8315" ry="2.8945" transform="matrix(-1 0 0 1 176.232 205.512)" fill="#E8FE91"/>
  </g>
  <path d="M21.2726 107.465C19.58 101.931 22.7662 96.0872 28.3348 94.512L40.0027 91.2115C43.8223 90.131 47.923 91.3362 50.5506 94.3114L70.3226 116.699L32.4591 144.039L21.2726 107.465Z" fill="#FFEA2D"/>
  <path d="M52.2442 114.798C54.7019 111.67 55.143 107.407 53.3781 103.842L49.7031 96.4169C49.1682 95.3361 50.6039 94.3717 51.4022 95.2755L70.3227 116.699L31.6161 141.059L52.2442 114.798Z" fill="#D9B32D"/>
  <ellipse cx="175.136" cy="109.849" rx="21.9378" ry="14.9693" transform="rotate(-15.7946 175.136 109.849)" fill="#E5CF0A"/>
  <path d="M179.606 108.584C181.857 116.539 178.732 126.802 168.17 129.79C157.609 132.777 156.028 123.845 153.778 115.89C151.528 107.935 147.844 98.2567 158.406 95.2693C168.967 92.2818 177.356 100.629 179.606 108.584Z" fill="#E5CF0A"/>
  <path d="M36.9921 128.325C77.2997 97.8691 133.062 86.4291 153.218 85.735C156.657 85.6165 159.957 86.8613 162.513 89.1649C176.018 101.339 177.807 117.445 176.142 129.126C175.211 135.659 169.749 140.271 163.308 141.706C111.533 153.237 63.895 151.801 39.6675 146.569C29.684 144.413 28.8431 134.482 36.9921 128.325Z" fill="#FFEA2D"/>
  <path d="M65.2449 124.241L65.1303 126.594L63.5106 127.871L65.546 128.207L66.7839 130.211L66.8985 127.858L68.5182 126.581L66.4828 126.245L65.2449 124.241Z" fill="#E8FE91"/>
  <path d="M98.5012 138.186L98.5801 139.805L99.6949 140.685L98.294 140.915L97.442 142.295L97.3631 140.675L96.2482 139.796L97.6492 139.565L98.5012 138.186Z" fill="#E8FE91"/>
  <path d="M58.9323 142.689C77.6357 144.164 82.9723 144.445 93.4001 144.234C120.519 143.687 154.587 134.944 167.518 135.562C172.462 135.798 169.704 140.293 164.881 141.407C122.181 151.271 83.0754 152.175 57.1518 149.307C44.0592 147.859 45.8006 141.653 58.9323 142.689Z" fill="#FFEA2D"/>
  <path d="M156.586 140.04L153.003 127.374L143.813 144.19L156.586 140.04Z" fill="#FFEA2D"/>
  <path d="M169.075 96.0064C165.5 79.7308 166.479 73.1373 170.194 72.0865C174.665 70.8217 183.102 86.8082 189.038 107.793C194.975 128.779 196.162 146.816 191.691 148.081C187.976 149.131 182.208 140.691 176.727 124.955" stroke="#25223A" stroke-width="1.03237"/>
  <path d="M185.848 107.891C190.814 125.448 192.503 140.341 189.621 141.156C187.888 141.646 185.195 137.993 182.171 130.925M171.637 77.5792C173.208 77.1346 175.815 80.9679 178.666 87.3926" stroke="#25223A" stroke-width="0.258092" stroke-linecap="round" stroke-dasharray="20.65 20.65"/>
  <path d="M186.868 135.498C187.818 135.229 187.693 131.574 186.479 125.294M171.835 82.3512C170.973 82.5949 171.201 86.3511 172.26 92.0963" stroke="#25223A" stroke-width="0.258092" stroke-linecap="round" stroke-dasharray="20.65 20.65"/>
  <path d="M114.043 132.765C114.861 130.349 116.816 128.491 119.27 127.797L143.082 121.062C149.681 119.195 155.269 126.195 151.988 132.217L130.188 172.224C129.108 174.207 127.216 175.619 125.009 176.091L101.818 181.051C99.8601 181.47 98.1916 179.597 98.8336 177.7L114.043 132.765Z" fill="#FCFF78"/>
  <path d="M98.3942 179.047C98.6586 178.181 99.3207 177.493 100.176 177.196L124.424 168.769C128.39 167.391 131.094 172.772 127.622 175.132C127.303 175.349 126.952 175.513 126.581 175.618L101.88 182.605C99.7192 183.216 97.7387 181.194 98.3942 179.047Z" fill="#FFEA2D"/>
  <path d="M32.8269 142.612C33.2742 140.815 34.6494 139.396 36.4309 138.892L57.6027 132.903C62.3378 131.564 66.0836 136.98 63.159 140.938L57.468 148.639C52.0301 155.997 44.3021 161.342 35.4976 163.832L31.2231 165.041C29.3157 165.581 27.5373 163.858 28.0162 161.934L32.8269 142.612Z" fill="#FCFF78"/>
  <path d="M44.6726 123.686C48.0733 120.221 58.0551 114.483 66.0924 110.278" stroke="white" stroke-width="0.516184" stroke-linecap="round"/>
  <path d="M138.525 92.3099C139.883 97.1105 132.311 103.455 121.613 106.482C110.914 109.508 101.141 108.069 99.7829 103.269C98.425 98.4684 106.77 94.8553 117.468 91.8291C128.166 88.8028 137.167 87.5094 138.525 92.3099Z" fill="#E5CF0A"/>
  <path d="M138.525 92.3101C139.883 97.1106 132.311 103.455 121.613 106.482C110.914 109.508 101.141 108.07 99.7828 103.269C98.4249 98.4685 107.063 104.428 117.762 101.402C128.46 98.3758 132.56 95.8751 138.525 92.3101Z" fill="#E5CF0A"/>
  <circle cx="168.473" cy="109.051" r="2.06473" transform="rotate(-15.7946 168.473 109.051)" fill="#E5CF0A"/>
  <circle cx="165.447" cy="100.251" r="1.54855" transform="rotate(-15.7946 165.447 100.251)" fill="#E5CF0A"/>
  <circle cx="160.716" cy="93.0065" r="1.03237" transform="rotate(-15.7946 160.716 93.0065)" fill="#E5CF0A"/>
  <circle cx="170.646" cy="118.629" r="1.54855" transform="rotate(-15.7946 170.646 118.629)" fill="#E5CF0A"/>
  <circle cx="171.404" cy="126.998" r="1.03237" transform="rotate(-15.7946 171.404 126.998)" fill="#E5CF0A"/>
  <circle cx="155.337" cy="89.1636" r="0.516184" transform="rotate(-15.7946 155.337 89.1636)" fill="#E5CF0A"/>
  <circle cx="170.466" cy="133.163" r="0.516184" transform="rotate(-15.7946 170.466 133.163)" fill="#E5CF0A"/>
  <path opacity="0.6" d="M128.376 163.577L146.551 127.322" stroke="white" stroke-width="1.03237" stroke-linecap="round"/>
  <path d="M28.9825 99.4427C28.9777 98.9171 29.6696 98.7214 29.9408 99.1716L30.9513 100.849C31.1254 101.138 31.5254 101.185 31.7618 100.944L33.1337 99.547C33.5019 99.172 34.1296 99.5228 34.003 100.033L33.5314 101.934C33.4502 102.261 33.6998 102.577 34.0372 102.574L35.9953 102.556C36.5208 102.551 36.7165 103.243 36.2664 103.514L34.589 104.525C34.3 104.699 34.253 105.099 34.4937 105.335L35.891 106.707C36.266 107.075 35.9151 107.703 35.4051 107.577L33.5045 107.105C33.177 107.024 32.8609 107.273 32.864 107.611L32.8819 109.569C32.8867 110.094 32.1948 110.29 31.9236 109.84L30.9131 108.163C30.739 107.874 30.339 107.827 30.1026 108.067L28.7307 109.465C28.3625 109.84 27.7348 109.489 27.8614 108.979L28.333 107.078C28.4142 106.751 28.1646 106.434 27.8272 106.438L25.8691 106.455C25.3436 106.46 25.1478 105.768 25.598 105.497L27.2754 104.487C27.5644 104.313 27.6114 103.913 27.3707 103.676L25.9734 102.304C25.5984 101.936 25.9493 101.308 26.4593 101.435L28.3599 101.907C28.6874 101.988 29.0035 101.738 29.0004 101.401L28.9825 99.4427Z" fill="#1F1F94"/>
  <path d="M29.5315 100.868C29.528 100.49 30.0252 100.349 30.2201 100.673L30.9462 101.878C31.0713 102.086 31.3587 102.12 31.5286 101.947L32.5144 100.943C32.779 100.673 33.23 100.925 33.1391 101.292L32.8002 102.657C32.7418 102.893 32.9212 103.12 33.1636 103.118L34.5707 103.105C34.9483 103.101 35.089 103.599 34.7655 103.793L33.5602 104.52C33.3525 104.645 33.3187 104.932 33.4917 105.102L34.4958 106.088C34.7652 106.352 34.5131 106.803 34.1466 106.712L32.7808 106.374C32.5455 106.315 32.3184 106.495 32.3206 106.737L32.3335 108.144C32.3369 108.522 31.8397 108.662 31.6449 108.339L30.9188 107.134C30.7937 106.926 30.5062 106.892 30.3364 107.065L29.3505 108.069C29.0859 108.339 28.6349 108.086 28.7258 107.72L29.0647 106.354C29.1231 106.119 28.9437 105.892 28.7013 105.894L27.2942 105.907C26.9166 105.91 26.7759 105.413 27.0994 105.218L28.3048 104.492C28.5124 104.367 28.5462 104.08 28.3732 103.91L27.3692 102.924C27.0997 102.659 27.3518 102.208 27.7184 102.299L29.0841 102.638C29.3194 102.696 29.5465 102.517 29.5443 102.275L29.5315 100.868Z" fill="#1F1F94"/>
  <path d="M58.9846 141.095C55.3525 147.219 52.6224 155.394 33.1219 161.554" stroke="white" stroke-width="0.516184" stroke-linecap="round"/>
  <mask id="mask0_149_60" style="mask-type:alpha" maskUnits="userSpaceOnUse" x="99" y="89" width="40" height="20">
    <path d="M138.525 92.3099C139.883 97.1105 132.311 103.455 121.613 106.482C110.915 109.508 101.141 108.069 99.7832 103.269C98.4252 98.4684 106.77 94.8553 117.468 91.8291C128.167 88.8028 137.167 87.5094 138.525 92.3099Z" fill="#C86709"/>
  </mask>
  <g mask="url(#mask0_149_60)">
    <path d="M103.948 110.406C101.538 85.5481 102.362 82.1325 105.418 76.3593C105.981 75.2969 107.274 74.9227 108.46 75.1219C109.889 75.3621 111.051 75.0626 111.967 74.4375C112.824 73.8531 113.897 73.4556 114.782 73.9971C121.472 78.0922 128.412 91.4846 133.102 105.378L103.948 110.406Z" fill="#1F1F94"/>
  </g>
  <path d="M102.852 96.8612C103.661 81.5539 103.109 80.8817 105.428 76.3677C105.978 75.2985 107.274 74.9225 108.46 75.1217C109.889 75.362 111.051 75.0624 111.967 74.4374C112.824 73.853 113.896 73.4571 114.816 73.9345C121.172 77.23 126.035 84.9709 130.709 98.8125L108.848 102.296C105.581 102.817 102.678 100.164 102.852 96.8612Z" fill="#1F1F94"/>
  <path d="M134.424 91.4384L133.271 92.859L134.164 96.0155L138.524 95.3567C139.51 95.2077 140.42 94.7411 141.117 94.0276L142.178 92.9407C142.667 92.4393 142.851 91.7146 142.66 91.0404C142.413 90.1659 141.596 89.5766 140.688 89.6176L137.772 89.7494C136.466 89.8084 135.247 90.423 134.424 91.4384Z" fill="#FCA378"/>
  <path d="M139.472 94.1431L136.756 90.5288C136.535 90.2349 136.733 89.8137 137.1 89.7964L140.904 89.6168C141.704 89.5791 142.44 90.0523 142.737 90.7958C143.021 91.505 142.847 92.3154 142.297 92.8458L140.839 94.252C140.443 94.6341 139.802 94.5831 139.472 94.1431Z" fill="#D9B32D"/>
  <path d="M105.629 102.921C103.36 94.412 103.83 82.6876 105.523 76.6168C105.832 75.5061 107.006 74.9597 108.151 75.0962C108.704 75.1622 109.242 75.1984 109.732 75.2173C110.921 75.2633 111.91 76.1361 112.006 77.3225L113.257 92.7477C113.497 95.7057 116.444 97.6575 119.261 96.724L132.161 92.4489C132.656 92.2848 133.188 92.5669 133.33 93.0689L133.626 94.1141C134.243 96.2965 133.17 98.602 131.102 99.5343L115.368 106.629C111.423 108.408 106.743 107.103 105.629 102.921Z" fill="#060644"/>
  <path fill-rule="evenodd" clip-rule="evenodd" d="M109.217 52.8649C113.225 52.7076 104.406 55.2857 108.287 56.3206C112.404 57.4185 109.469 54.8406 111.922 58.3505C111.536 61.3398 112.324 55.3633 111.922 58.3505C111.348 62.6151 112.944 68.2652 109.462 70.7517C106.043 73.1926 115.082 67.9804 111.154 69.4593C103.239 72.4393 99.152 84.6015 90.7367 83.6729C83.8113 82.9087 81.0395 72.9799 80.0909 66.0314C79.2229 59.6737 89.1386 75.0707 91.8691 69.2867C93.9063 64.9714 96.3531 60.9664 99.9347 57.8345C103.188 54.9901 104.904 53.0342 109.217 52.8649Z" fill="#25223A"/>
  <circle cx="107.748" cy="65.1547" r="8.91684" transform="rotate(-15.7946 107.748 65.1547)" fill="#D9B32D"/>
  <circle cx="107.748" cy="65.1547" r="8.91684" transform="rotate(-15.7946 107.748 65.1547)" fill="#FCA378"/>
  <path d="M109.758 73.8529C99.9296 75.2306 99.4443 66.4653 101.606 62.598C114.368 55.1451 115.815 55.9523 113.634 59.8524C112.846 60.8899 107.01 61.8798 106.378 63.2183C105.358 65.3798 105.17 69.0556 106.4 71.4205C107.202 72.9634 109.31 73.7677 109.758 73.8529Z" fill="#D9B32D"/>
  <rect x="103.681" y="64.64" width="7.32981" height="1.46596" transform="rotate(-15.7946 103.681 64.64)" fill="#3827A2"/>
  <path d="M113.196 59.8345C114.603 59.5716 115.552 58.1966 114.988 56.8812C114.465 55.6609 113.743 54.5313 112.848 53.5445C111.372 51.9172 109.486 50.7441 107.406 50.1607C105.326 49.5772 103.137 49.6071 101.093 50.2468C99.0487 50.8866 97.2317 52.1102 95.8516 53.7765C94.4715 55.4428 93.5846 57.4839 93.2932 59.6643C93.0017 61.8447 93.3177 64.0756 94.2045 66.0996C95.0913 68.1236 96.5129 69.8583 98.3053 71.1036C99.3643 71.8393 100.527 72.3865 101.744 72.7283C103.134 73.1187 104.359 71.9532 104.389 70.5097L104.533 63.5431C104.558 62.3209 105.438 61.284 106.639 61.0595L113.196 59.8345Z" fill="#2A58B0"/>
  <path d="M95.9258 62.8669C94.5124 63.0993 93.5338 64.4556 94.0712 65.7833C94.754 67.4703 95.8119 68.9889 97.1729 70.2082C98.5092 71.4055 100.082 72.2649 101.764 72.7339C103.155 73.1217 104.377 71.9541 104.405 70.5106L104.518 64.5432C104.548 62.9311 103.11 61.686 101.519 61.9476L95.9258 62.8669Z" fill="#3827A2"/>
  <path d="M116.568 62.0973C117.025 63.7151 116.035 65.4116 114.356 65.8866C112.677 66.3615 110.945 65.435 110.488 63.8172C110.03 62.1994 111.48 62.1303 113.159 61.6554C114.838 61.1804 116.11 60.4795 116.568 62.0973Z" fill="#45CFCE"/>
  <path d="M116.568 62.0972C117.026 63.715 116.035 65.4115 114.356 65.8865C112.677 66.3614 110.945 65.4349 110.488 63.8171C110.03 62.1993 112.326 65.1206 114.005 64.6456C115.684 64.1707 116.11 60.4793 116.568 62.0972Z" fill="#3827A2"/>
</svg>