<svg xmlns="http://www.w3.org/2000/svg" width="42" height="42" viewBox="0 0 42 42" fill="none">
  <path d="M20.2371 18.1651L9.03006 13.4086C8.55406 13.2231 8.27523 12.8848 8.19356 12.3936C8.1119 11.9024 8.24665 11.4819 8.59781 11.1319L9.02831 10.6663C9.19515 10.5007 9.38473 10.3875 9.59706 10.3268C9.8094 10.2662 10.034 10.2539 10.2708 10.2901L25.5168 12.9221L31.0083 7.41835C31.4995 6.92835 32.0933 6.68335 32.7898 6.68335C33.4863 6.68335 34.0807 6.92835 34.5731 7.41835C35.0642 7.90952 35.3098 8.50393 35.3098 9.2016C35.3098 9.89927 35.0642 10.4931 34.5731 10.9831L29.0798 16.4851L31.7031 31.7206C31.7381 31.9586 31.727 32.1855 31.6698 32.4014C31.6126 32.616 31.5012 32.8068 31.3356 32.9736L30.8718 33.3936C30.5195 33.7459 30.0966 33.883 29.6031 33.8048C29.1084 33.7255 28.7683 33.4484 28.5828 32.9736L23.8333 21.7316L18.4626 27.0936L19.3901 32.5519C19.4274 32.7315 19.4245 32.9036 19.3813 33.0681C19.3393 33.2338 19.2495 33.3849 19.1118 33.5214L18.6376 33.9624C18.3634 34.2365 18.0507 34.3409 17.6996 34.2756C17.3496 34.2103 17.0841 34.016 16.9033 33.6929L13.9126 28.0876L8.30906 25.0951C7.9859 24.9166 7.79165 24.6518 7.72631 24.3006C7.66098 23.9494 7.76598 23.6368 8.04131 23.3626L8.48056 22.8884C8.61706 22.7507 8.76815 22.655 8.93381 22.6013C9.09831 22.5477 9.2704 22.5389 9.45006 22.5751L14.8978 23.5271L20.2371 18.1651Z" fill="white"/>
</svg>