<svg xmlns="http://www.w3.org/2000/svg" width="24" height="26" viewBox="0 0 24 26" fill="none">
  <path d="M7.30005 13C6.65112 13 6.12505 13.5821 6.12505 14.3C6.12505 15.018 6.65112 15.6 7.30005 15.6H16.7C17.349 15.6 17.875 15.018 17.875 14.3C17.875 13.5821 17.349 13 16.7 13H7.30005Z" fill="white"/>
  <path d="M6.12505 19.5001C6.12505 18.7821 6.65112 18.2001 7.30005 18.2001H12C12.649 18.2001 13.175 18.7821 13.175 19.5001C13.175 20.2181 12.649 20.8001 12 20.8001H7.30005C6.65112 20.8001 6.12505 20.2181 6.12505 19.5001Z" fill="white"/>
  <path fill-rule="evenodd" clip-rule="evenodd" d="M7.3 1.3C7.3 0.582036 6.77393 0 6.125 0C5.47607 0 4.95 0.582036 4.95 1.3V2.73003C2.26837 3.33228 0.25 5.95535 0.25 9.1V19.5C0.25 23.0898 2.88033 26 6.125 26H17.875C21.1196 26 23.75 23.0898 23.75 19.5V9.1C23.75 5.95535 21.7316 3.33228 19.05 2.73003V1.3C19.05 0.582036 18.524 0 17.875 0C17.226 0 16.7 0.582036 16.7 1.3V2.6H7.3V1.3ZM2.6 10.4H21.4V19.5C21.4 21.654 19.8219 23.4 17.875 23.4H6.125C4.1782 23.4 2.6 21.654 2.6 19.5V10.4Z" fill="white"/>
</svg>