<svg width="20" height="24" viewBox="0 0 20 24" fill="none" xmlns="http://www.w3.org/2000/svg">
<path fill-rule="evenodd" clip-rule="evenodd" d="M10.0001 22.7997L10.8497 23.6469C10.7383 23.7588 10.6058 23.8476 10.4599 23.9082C10.314 23.9688 10.1575 24 9.99955 24C9.84156 24 9.68513 23.9688 9.53923 23.9082C9.39333 23.8476 9.26084 23.7588 9.14935 23.6469L9.14215 23.6385L9.12175 23.6181L9.04735 23.5425C8.62433 23.1067 8.20828 22.6643 7.79935 22.2153C6.77263 21.0903 5.7895 19.9262 4.85215 18.7257C3.78175 17.3457 2.68735 15.7858 1.85575 14.245C1.04215 12.7342 0.400146 11.0974 0.400146 9.59986C0.400146 4.15314 4.71055 0 10.0001 0C15.2897 0 19.6001 4.15314 19.6001 9.59986C19.6001 11.0974 18.9581 12.7342 18.1445 14.2438C17.3129 15.787 16.2197 17.3457 15.1481 18.7257C13.837 20.4053 12.4366 22.0132 10.9529 23.5425L10.8785 23.6181L10.8581 23.6385L10.8509 23.6457L10.0001 22.7997ZM10.0001 13.1998C10.9549 13.1998 11.8706 12.8205 12.5457 12.1454C13.2209 11.4703 13.6001 10.5546 13.6001 9.59986C13.6001 8.6451 13.2209 7.72943 12.5457 7.05431C11.8706 6.37919 10.9549 5.99991 10.0001 5.99991C9.04537 5.99991 8.12969 6.37919 7.45456 7.05431C6.77943 7.72943 6.40015 8.6451 6.40015 9.59986C6.40015 10.5546 6.77943 11.4703 7.45456 12.1454C8.12969 12.8205 9.04537 13.1998 10.0001 13.1998Z" fill="white"/>
</svg>
