<svg xmlns="http://www.w3.org/2000/svg" width="46" height="46" viewBox="0 0 46 46" fill="none">
  <path d="M29.1235 35.7648C27.3475 37.6147 25.3125 39.5203 23 41.4998C13.1395 33.0823 8.19995 25.8118 8.19995 19.6698C8.19995 10.4568 15.23 4.49976 23 4.49976C30.7515 4.49976 37.7815 10.4383 37.8 19.6143L41.6665 15.7478L44.275 18.3748L35.95 26.6998L27.625 18.3748L30.2335 15.7663L34.1 19.6143C34.0815 12.9173 29.179 8.19976 23 8.19976C16.8025 8.19976 11.9 12.9543 11.9 19.6698C11.9 23.9988 15.5075 29.7338 23 36.5788C24.184 35.4873 25.2755 34.4328 26.2745 33.4153C25.9489 32.7729 25.7779 32.0634 25.775 31.3433C25.775 30.1166 26.2622 28.9402 27.1296 28.0729C27.9969 27.2055 29.1733 26.7183 30.4 26.7183C31.6266 26.7183 32.803 27.2055 33.6703 28.0729C34.5377 28.9402 35.025 30.1166 35.025 31.3433C35.0243 32.0587 34.8572 32.7641 34.5368 33.4037C34.2164 34.0434 33.7516 34.5997 33.179 35.0286C32.6065 35.4576 31.942 35.7474 31.2381 35.8752C30.5342 36.0029 29.8102 35.9651 29.1235 35.7648Z" fill="white"/>
</svg>