<svg width="363" height="530" viewBox="0 0 363 530" fill="none" xmlns="http://www.w3.org/2000/svg">
<path opacity="0.3" fill-rule="evenodd" clip-rule="evenodd" d="M202.291 71.503C273.204 71.9506 337.859 124.096 358.143 203.668C377.13 278.153 337.872 349.284 285.137 396.496C226.904 448.631 150.872 491.816 90.3119 443.452C25.6937 391.846 15.1761 288.048 41.1818 201.668C65.1652 122.005 130.16 71.0478 202.291 71.503Z" fill="#FEFA91"/>
<path opacity="0.3" fill-rule="evenodd" clip-rule="evenodd" d="M51.5069 21.5009C72.4633 21.6284 91.5702 36.4893 97.5647 59.1662C103.176 80.3934 91.574 100.665 75.9898 114.12C58.7805 128.978 36.3114 141.285 18.4146 127.501C-0.681557 112.795 -3.78975 83.2133 3.89552 58.5961C10.9831 35.8932 30.1904 21.3711 51.5069 21.5009Z" fill="#FEFA91"/>
<rect x="30" y="152.802" width="53" height="36.4375" rx="2" transform="rotate(-16.7806 30 152.802)" fill="white"/>
<line x1="56.3247" y1="150.314" x2="63.592" y2="174.414" stroke="#25223A" stroke-width="0.5" stroke-linecap="round"/>
<rect x="69.4919" y="146.083" width="9.10938" height="9.10938" rx="2" transform="rotate(-16.7806 69.4919 146.083)" fill="#060644"/>
<rect x="71.5557" y="147.19" width="5.79688" height="5.79688" rx="2" transform="rotate(-16.7806 71.5557 147.19)" fill="#060644"/>
<rect x="73.6196" y="148.298" width="2.48438" height="2.48438" rx="1.24219" transform="rotate(-16.7806 73.6196 148.298)" fill="white"/>
<circle cx="72.0461" cy="157.422" r="5.54688" transform="rotate(-16.7806 72.0461 157.422)" stroke="#25223A" stroke-width="0.5"/>
<path d="M73.7953 160.354C71.6059 161.015 69.5099 160.485 69.1138 159.171" stroke="#25223A" stroke-width="0.5" stroke-linecap="round"/>
<path d="M84.3678 163.254C84.4338 163.133 84.389 162.981 84.2677 162.915C84.1465 162.849 83.9947 162.894 83.9286 163.015L84.3678 163.254ZM66.4418 169.819C66.9631 168.988 68.0218 167.852 69.4874 167.172C70.9431 166.497 72.8059 166.269 74.9685 167.248L75.1747 166.792C72.869 165.748 70.8537 165.987 69.2771 166.718C67.7102 167.445 66.5823 168.654 66.0182 169.554L66.4418 169.819ZM74.9685 167.248C77.2924 168.3 79.3583 167.842 80.9795 166.851C82.5907 165.866 83.7704 164.352 84.3678 163.254L83.9286 163.015C83.3624 164.055 82.2378 165.496 80.7187 166.424C79.2096 167.347 77.3191 167.763 75.1747 166.792L74.9685 167.248Z" fill="#060644"/>
<path d="M84.8461 164.839C84.9121 164.718 84.8673 164.566 84.746 164.5C84.6247 164.434 84.4729 164.479 84.4069 164.6L84.8461 164.839ZM66.9201 171.405C67.4413 170.573 68.5001 169.437 69.9656 168.758C71.4214 168.083 73.2842 167.855 75.4468 168.834L75.653 168.378C73.3472 167.334 71.332 167.573 69.7553 168.304C68.1885 169.031 67.0606 170.239 66.4964 171.139L66.9201 171.405ZM75.4468 168.834C77.7706 169.886 79.8366 169.428 81.4578 168.437C83.069 167.452 84.2486 165.937 84.8461 164.839L84.4069 164.6C83.8406 165.641 82.7161 167.081 81.197 168.01C79.6879 168.933 77.7974 169.349 75.653 168.378L75.4468 168.834Z" fill="#060644"/>
<path d="M85.3241 166.425C85.3901 166.304 85.3453 166.152 85.224 166.086C85.1028 166.02 84.951 166.065 84.8849 166.186L85.3241 166.425ZM67.3981 172.991C67.9194 172.159 68.9781 171.023 70.4437 170.343C71.8994 169.669 73.7622 169.44 75.9248 170.419L76.131 169.964C73.8253 168.92 71.81 169.159 70.2334 169.89C68.6665 170.616 67.5386 171.825 66.9745 172.725L67.3981 172.991ZM75.9248 170.419C78.2487 171.472 80.3146 171.014 81.9358 170.022C83.547 169.037 84.7267 167.523 85.3241 166.425L84.8849 166.186C84.3187 167.227 83.1941 168.667 81.675 169.596C80.1659 170.519 78.2754 170.935 76.131 169.964L75.9248 170.419Z" fill="#060644"/>
<line x1="35.0121" y1="157.084" x2="51.9764" y2="151.968" stroke="#25223A" stroke-width="0.5" stroke-linecap="round"/>
<line x1="36.4467" y1="161.841" x2="48.6538" y2="158.16" stroke="#25223A" stroke-width="0.5" stroke-linecap="round"/>
<line x1="37.8813" y1="166.598" x2="54.8455" y2="161.483" stroke="#25223A" stroke-width="0.5" stroke-linecap="round"/>
<line x1="39.3159" y1="171.355" x2="56.2801" y2="166.24" stroke="#25223A" stroke-width="0.5" stroke-linecap="round"/>
<line x1="40.7502" y1="176.113" x2="57.7144" y2="170.997" stroke="#25223A" stroke-width="0.5" stroke-linecap="round"/>
<line x1="42.1848" y1="180.87" x2="59.149" y2="175.754" stroke="#25223A" stroke-width="0.5" stroke-linecap="round"/>
<path fill-rule="evenodd" clip-rule="evenodd" d="M343.834 163.755L350.467 165.443C350.424 166.318 351 167.131 351.881 167.355C352.763 167.58 353.658 167.141 354.038 166.352L356.99 167.103L356.248 170.019L356.248 170.019C355.242 169.763 354.218 170.371 353.962 171.377C353.706 172.384 354.314 173.407 355.321 173.663L355.321 173.663L353.651 180.223L353.651 180.223C352.645 179.967 351.621 180.575 351.365 181.582C351.109 182.588 351.717 183.612 352.724 183.868L352.724 183.868L351.054 190.427L351.054 190.427C350.048 190.171 349.024 190.78 348.768 191.786C348.512 192.792 349.12 193.816 350.127 194.072L350.127 194.072L348.458 200.632C347.451 200.375 346.428 200.984 346.172 201.99C345.916 202.996 346.524 204.02 347.53 204.276L347.066 206.098L344.151 205.356C344.151 205.356 344.151 205.356 344.151 205.356C344.407 204.35 343.799 203.326 342.792 203.07C341.786 202.814 340.762 203.422 340.506 204.429C340.506 204.429 340.506 204.429 340.506 204.429L333.946 202.759L333.947 202.759C334.203 201.752 333.594 200.729 332.588 200.473C331.582 200.217 330.558 200.825 330.302 201.831L330.302 201.832L323.742 200.163L323.742 200.162C323.998 199.156 323.39 198.133 322.384 197.877C321.378 197.62 320.354 198.229 320.098 199.235L320.098 199.235L317.182 198.493L317.646 196.671C318.652 196.927 319.676 196.318 319.932 195.312C320.188 194.306 319.58 193.282 318.574 193.026L320.243 186.466C321.249 186.722 322.273 186.114 322.529 185.108C322.785 184.102 322.177 183.078 321.17 182.822L322.84 176.262C323.846 176.518 324.869 175.91 325.126 174.904C325.382 173.897 324.774 172.874 323.767 172.618L325.437 166.058C326.443 166.314 327.467 165.706 327.723 164.699C327.979 163.693 327.371 162.67 326.364 162.414L327.106 159.498L330.058 160.249C330.015 161.124 330.591 161.937 331.473 162.162C332.355 162.386 333.249 161.947 333.63 161.158L340.262 162.846C340.22 163.721 340.796 164.534 341.677 164.758C342.559 164.983 343.453 164.544 343.834 163.755Z" fill="#060644"/>
<rect x="329.432" y="163.412" width="24.143" height="32.9954" transform="rotate(14.2782 329.432 163.412)" fill="white"/>
<rect x="331.443" y="168.411" width="17.7789" height="24.2979" rx="2" transform="rotate(14.2782 331.443 168.411)" fill="#26C589"/>
<path d="M325.524 191.885L349.079 172.748" stroke="white"/>
<path d="M331.904 196.302L349.079 182.071" stroke="white"/>
<path d="M326.015 181.58L343.19 167.35" stroke="white"/>
<ellipse opacity="0.5" cx="185.283" cy="521.315" rx="134.226" ry="8.18452" fill="#FEFA91"/>
<path d="M200.27 313.078L187.332 251.918L97.2803 345.53L125.957 381.829L195.557 326.227C199.488 323.087 201.311 318 200.27 313.078Z" fill="#FBD601"/>
<path d="M165.886 227.235L184.252 299.998C185.578 305.251 183.587 310.783 179.217 313.986L114.341 361.542" stroke="white" stroke-width="4.4351"/>
<path fill-rule="evenodd" clip-rule="evenodd" d="M321.773 369.351C325.203 374.056 319.287 380.608 320.204 386.37C320.765 389.889 324.728 391.73 325.873 395.101C328.148 401.803 334.836 410.153 330.059 415.398C325.519 420.383 317.372 412.833 310.749 411.707C306.376 410.963 302.162 411.115 297.89 409.928C291.972 408.285 284.055 408.877 281.116 403.478C278.216 398.152 282.55 391.696 284.91 386.09C286.876 381.421 289.659 377.296 293.519 374.018C297.305 370.805 301.698 368.496 306.587 367.688C311.743 366.837 318.699 365.133 321.773 369.351Z" fill="#FF992D"/>
<path d="M289.873 284.977L271.732 189.762C270.363 182.574 263.447 177.841 256.251 179.167L222.448 185.397C215.191 186.734 210.408 193.723 211.79 200.972L229.9 296.03" stroke="#25223A" stroke-width="8.8702" stroke-linecap="round"/>
<path fill-rule="evenodd" clip-rule="evenodd" d="M319.674 374.399C322.37 378.099 317.72 383.249 318.441 387.778C318.881 390.544 321.997 391.991 322.897 394.642C324.685 399.91 329.943 406.474 326.188 410.597C322.619 414.515 316.214 408.58 311.008 407.695C307.571 407.111 304.258 407.23 300.899 406.297C296.247 405.006 290.024 405.471 287.714 401.227C285.434 397.04 288.841 391.965 290.697 387.558C292.242 383.888 294.429 380.645 297.464 378.069C300.44 375.543 303.893 373.728 307.736 373.093C311.789 372.423 317.257 371.084 319.674 374.399Z" fill="#E87F0F"/>
<rect x="209.512" y="296.301" width="101.823" height="145.923" rx="13.3053" transform="rotate(-10.4421 209.512 296.301)" fill="#E87F0F"/>
<path d="M206.847 309.131L214.83 298.487L221.039 317.114L206.847 309.131Z" fill="#E87F0F"/>
<path d="M323.933 428.435L331.916 417.791L322.603 412.025L323.933 428.435Z" fill="#E87F0F"/>
<rect x="202.416" y="306.058" width="101.823" height="145.923" rx="13.3053" transform="rotate(-10.4421 202.416 306.058)" fill="#FF992D"/>
<path opacity="0.5" d="M226.68 436.231L209.984 344.055C230.294 424.799 267.171 440.726 286.503 438.611L290.528 437.854C289.294 438.194 287.947 438.453 286.503 438.611L242.231 446.936C234.975 448.3 227.996 443.496 226.68 436.231Z" fill="#E87F0F"/>
<rect x="224.056" y="318.31" width="8.71181" height="114.705" rx="4.3559" transform="rotate(-10.4421 224.056 318.31)" fill="#E87F0F"/>
<rect x="252.615" y="313.047" width="8.71181" height="114.705" rx="4.3559" transform="rotate(-10.4421 252.615 313.047)" fill="#E87F0F"/>
<rect x="281.173" y="307.783" width="8.71181" height="114.705" rx="4.3559" transform="rotate(-10.4421 281.173 307.783)" fill="#E87F0F"/>
<path d="M108.725 292.823L109.235 297.507L112.621 299.864L108.598 300.776L106.367 304.926L105.857 300.242L102.47 297.886L106.494 296.973L108.725 292.823Z" fill="#FEFA91"/>
<path d="M205.41 397.491L205.921 402.176L209.307 404.532L205.284 405.445L203.052 409.595L202.542 404.91L199.156 402.554L203.179 401.641L205.41 397.491Z" fill="#FEFA91"/>
<path d="M200.378 147.563L204.043 152.199L209.211 152.445L205.546 156.096L205.942 161.992L202.277 157.356L197.109 157.111L200.774 153.459L200.378 147.563Z" fill="#FEFA91"/>
<path d="M212.423 14.519L212.548 18.6056L215.318 20.8729L211.776 21.3904L209.565 24.8295L209.44 20.7429L206.671 18.4757L210.212 17.9582L212.423 14.519Z" fill="#FEFA91"/>
<path d="M318.107 264.181L318.394 270.084L322.457 273.288L317.352 274.128L314.247 279.157L313.96 273.254L309.897 270.05L315.002 269.209L318.107 264.181Z" fill="#FEFA91"/>
<path d="M97.0656 108.595L96.889 111.904L98.9722 113.923L96.0766 114.101L94.0577 116.728L94.2343 113.419L92.1511 111.4L95.0467 111.223L97.0656 108.595Z" fill="#FEFA91"/>
<circle cx="258.054" cy="450.09" r="4.3559" transform="rotate(-10.4421 258.054 450.09)" fill="#25223A"/>
<circle cx="308.031" cy="440.88" r="4.3559" transform="rotate(-10.4421 308.031 440.88)" fill="#25223A"/>
<path d="M235.156 298.315L279.421 290.157L280.09 293.786C280.978 298.604 277.792 303.229 272.974 304.117L246.156 309.06C241.338 309.948 236.712 306.762 235.825 301.944L235.156 298.315Z" fill="#E87F0F"/>
<path d="M235.156 298.315L279.582 290.06L279.712 290.847C280.5 295.618 277.323 300.14 272.568 301.017L245.589 305.989C240.772 306.876 236.146 303.691 235.258 298.873L235.156 298.315Z" fill="white"/>
<path d="M237.673 290.728L235 298.748L279.554 290.282L280 283.154L237.673 290.728Z" fill="#FEFA91"/>
<path d="M216.283 175.992L210.522 180.048V189.36L224.315 191.103C226.231 191.345 228.174 190.955 229.849 189.992L235.349 186.83C236.725 186.038 237.574 184.572 237.574 182.985V181.447C237.574 179.387 236.157 177.599 234.152 177.129L223.416 174.609C220.95 174.03 218.354 174.534 216.283 175.992Z" fill="#E87F0F"/>
<path d="M226.802 189.218L221.56 175.649C221.303 174.985 221.895 174.304 222.588 174.465L234.498 177.235C236.339 177.663 237.706 179.211 237.904 181.091L238.034 182.327C238.223 184.121 237.307 185.85 235.718 186.701L229.295 190.142C228.355 190.645 227.187 190.212 226.802 189.218Z" fill="#E87F0F"/>
<path d="M200.013 235.164L178.906 124.631L189.267 246.353L193.196 245.493C197.892 244.466 200.915 239.885 200.013 235.164Z" fill="white"/>
<path d="M145.133 451.427V423.737C158.118 427.138 167.032 425.154 169.866 423.737V434.201L188.609 481.666C188.813 482.184 188.919 482.737 188.919 483.294V485.751C188.919 486.375 188.764 486.989 188.468 487.539C187.316 489.678 184.471 490.186 182.65 488.577L148.13 458.074C146.224 456.391 145.133 453.97 145.133 451.427Z" fill="#25223A"/>
<path d="M145.133 423.351V402.482H169.866V423.351C161.828 427.37 150.028 425.025 145.133 423.351Z" fill="#E87F0F"/>
<path d="M169.927 416.46H144.94L145.199 424C156.553 427.548 166.527 425.331 169.927 424V416.46Z" fill="white"/>
<path d="M78.9601 375.15L94.425 361.138L111.032 379.467L95.5669 393.479C87.1912 390.22 81.0058 379.902 78.9601 375.15Z" fill="#E87F0F"/>
<path d="M62.1029 390.272L78.9966 374.932C85.2079 386.831 92.6692 392.097 95.6234 393.242L113.151 444.172C113.728 445.848 113.251 447.707 111.939 448.899L111.782 449.041C111.239 449.534 110.581 449.885 109.869 450.062L107.987 450.529C106.404 450.922 104.732 450.414 103.636 449.206L61.499 402.802C58.2057 399.175 58.4761 393.565 62.1029 390.272Z" fill="#25223A"/>
<path d="M95.5256 393.841C88.7842 392.067 81.7768 380.536 79.1157 375.214L83.9943 370.335L99.9607 389.85L95.5256 393.841Z" fill="white"/>
<rect x="99.4241" y="342.997" width="46.597" height="15.1923" rx="1.77404" transform="rotate(49.8056 99.4241 342.997)" fill="#3D696B" fill-opacity="0.5"/>
<rect x="96.6545" y="342.262" width="51.7852" height="13.9124" rx="1.77404" transform="rotate(49.8056 96.6545 342.262)" fill="#FBD601"/>
<path d="M132.766 389.342L124.65 258.333L187.643 251.763L183.005 389.342H132.766Z" fill="#FBD601"/>
<path d="M160.1 387.454L158.736 249.102H162.078L163.374 387.454H160.1Z" fill="white"/>
<path d="M125.241 258.571L187.332 251.918V264.78L125.241 268.328V258.571Z" fill="#3D696B" fill-opacity="0.5"/>
<path d="M116.358 249.209C121.068 178.734 134.305 130.87 148.721 112.23C150.145 110.388 152.764 110.328 154.763 111.523C159.786 114.525 164.287 114.45 168.035 112.678C169.851 111.819 172.057 111.69 173.314 113.258C187.489 130.928 189.871 201.985 191.865 246.045C192.085 250.919 188.345 255.073 183.473 255.344L125.644 258.557C120.37 258.85 116.006 254.48 116.358 249.209Z" fill="#060644"/>
<path d="M116.235 249.182L122.136 195.149C117.885 264.325 143.664 253.309 156.804 256.4L125.789 258.985C120.231 259.448 115.629 254.727 116.235 249.182Z" fill="#111182"/>
<path d="M127.4 192.865C125.662 166.305 137.849 128.607 148.244 112.714C149.467 110.845 151.943 110.447 153.968 111.389C156.686 112.654 159.466 113.584 161.669 114.235C163.88 114.889 165.257 117.057 164.811 119.319L154.924 169.434C153.811 175.075 158.276 180.267 164.02 180.012L208.669 178.032C209.678 177.987 210.522 178.793 210.522 179.804V187.307C210.522 191.701 207.305 195.433 202.959 196.081L144.365 204.813C136.072 206.049 127.947 201.232 127.4 192.865Z" fill="#111182"/>
<rect x="132.337" y="386.745" width="50.5602" height="4.4351" rx="1.77404" fill="#3D696B" fill-opacity="0.5"/>
<rect x="131.993" y="388.569" width="51.7852" height="13.9124" rx="1.77404" fill="#FBD601"/>
<path fill-rule="evenodd" clip-rule="evenodd" d="M175.155 23.5707C182.949 25.4484 186.561 34.4006 193.464 38.5029C200.787 42.8553 213.729 40.0802 216.539 48.1666C219.453 56.5551 208.43 63.3667 204.938 71.5284C202.569 77.0682 201.75 82.8153 199.352 88.3426C195.928 96.2335 195.923 107.97 187.872 110.858C179.968 113.693 173.817 99.7942 165.457 100.502C148.61 101.927 134.13 123.098 118.449 116.732C105.543 111.494 105.614 90.8879 107.57 77.006C109.359 64.3044 120.055 55.3592 128.454 45.7192C134.721 38.527 141.607 32.1546 150.2 28.0791C158.005 24.3776 166.766 21.5494 175.155 23.5707Z" fill="#25223A"/>
<circle cx="161.247" cy="90.3686" r="17.8249" fill="#F68853"/>
<path d="M147.373 79.2883C141.111 85.5511 140.725 105.496 160.381 108.194C154.6 105.303 144.964 96.1497 147.373 79.2883Z" fill="#C86709"/>
<rect x="30.6231" y="153.136" width="52" height="35.4375" rx="1.5" transform="rotate(-16.7806 30.6231 153.136)" fill="white" stroke="#25223A"/>
<line x1="56.6362" y1="150.482" x2="63.7592" y2="174.103" stroke="#25223A" stroke-linecap="round"/>
<rect x="70.115" y="146.417" width="8.10938" height="8.10938" rx="1.5" transform="rotate(-16.7806 70.115 146.417)" fill="#060644" stroke="#25223A"/>
<rect x="72.1787" y="147.525" width="4.79688" height="4.79688" rx="1.5" transform="rotate(-16.7806 72.1787 147.525)" fill="#060644" stroke="#25223A"/>
<rect x="74.2427" y="148.632" width="1.48438" height="1.48438" rx="0.742188" transform="rotate(-16.7806 74.2427 148.632)" fill="white" stroke="#25223A"/>
<circle cx="72.0461" cy="157.422" r="5.29688" transform="rotate(-16.7806 72.0461 157.422)" stroke="#25223A"/>
<path d="M73.7953 160.354C71.6059 161.015 69.5099 160.485 69.1138 159.171" stroke="#25223A" stroke-linecap="round"/>
<rect x="35.3124" y="161.124" width="18.0917" height="0.5" rx="0.25" transform="rotate(-17.0743 35.3124 161.124)" fill="#25223A" stroke="#25223A" stroke-width="0.5"/>
<rect x="37.3124" y="167.124" width="7.76471" height="0.5" rx="0.25" transform="rotate(-17.0743 37.3124 167.124)" fill="#25223A" stroke="#25223A" stroke-width="0.5"/>
</svg>
