<svg width="515" height="507" viewBox="0 0 515 507" fill="none" xmlns="http://www.w3.org/2000/svg">
<path d="M457.224 232.026C456.692 230.856 456.149 229.679 455.586 228.508C455.435 228.18 455.562 227.783 455.889 227.631C456.216 227.48 456.614 227.607 456.765 227.934C457.339 229.113 457.894 230.296 458.419 231.477C458.571 231.805 458.425 232.207 458.086 232.351C457.884 232.452 457.65 232.422 457.475 232.318C457.359 232.248 457.275 232.151 457.212 232.019L457.224 232.026ZM455.042 224.428C454.454 223.272 453.855 222.11 453.237 220.952C453.067 220.629 452.67 220.502 452.34 220.684C452.018 220.854 451.902 221.259 452.073 221.581C452.679 222.732 453.285 223.883 453.861 225.032C453.919 225.145 454.003 225.243 454.108 225.305C454.294 225.416 454.535 225.434 454.744 225.322C455.067 225.152 455.205 224.762 455.035 224.439L455.042 224.428ZM465.748 254.202C465.899 254.293 466.085 254.325 466.277 254.266C466.626 254.159 466.829 253.791 466.722 253.443C466.341 252.206 465.948 250.962 465.544 249.711C465.436 249.362 465.055 249.182 464.707 249.29C464.359 249.397 464.178 249.778 464.286 250.127C464.697 251.366 465.078 252.603 465.447 253.834C465.489 254.001 465.601 254.131 465.741 254.214L465.748 254.202ZM400.209 354.071C399.637 352.941 399.068 351.78 398.502 350.59C398.35 350.263 397.959 350.124 397.621 350.269C397.293 350.42 397.155 350.811 397.299 351.15C397.871 352.359 398.445 353.537 399.016 354.668C399.074 354.781 399.165 354.867 399.27 354.929C399.456 355.041 399.697 355.059 399.906 354.947C400.229 354.777 400.355 354.379 400.197 354.064L400.209 354.071ZM451.349 217.536C450.718 216.402 450.067 215.272 449.398 214.147C449.21 213.829 448.81 213.732 448.499 213.909C448.181 214.098 448.084 214.498 448.262 214.809C448.919 215.927 449.569 217.057 450.196 218.173C450.261 218.275 450.34 218.354 450.433 218.409C450.631 218.527 450.88 218.534 451.088 218.422C451.399 218.245 451.515 217.84 451.338 217.529L451.349 217.536ZM463.308 246.798C463.471 246.895 463.675 246.922 463.863 246.845C464.207 246.719 464.38 246.35 464.266 246.013C463.829 244.79 463.392 243.567 462.926 242.341C462.792 242.009 462.411 241.829 462.079 241.962C461.736 242.088 461.567 242.476 461.7 242.808C462.155 244.027 462.599 245.238 463.036 246.461C463.085 246.617 463.192 246.728 463.32 246.805L463.308 246.798ZM395.422 343.465C395.288 343.133 394.9 342.964 394.568 343.098C394.236 343.231 394.068 343.619 394.201 343.951C394.691 345.19 395.202 346.395 395.704 347.562C395.767 347.694 395.862 347.798 395.967 347.861C396.141 347.965 396.364 347.988 396.559 347.899C396.898 347.755 397.048 347.371 396.903 347.032C396.402 345.865 395.902 344.667 395.417 343.447L395.422 343.465ZM460.271 239.178C460.327 239.322 460.423 239.426 460.539 239.496C460.714 239.6 460.925 239.616 461.125 239.546C461.456 239.413 461.625 239.025 461.492 238.693C461.011 237.49 460.5 236.286 459.989 235.082C459.856 234.75 459.461 234.592 459.122 234.737C458.783 234.882 458.633 235.265 458.778 235.604C459.296 236.797 459.795 237.995 460.264 239.19L460.271 239.178ZM392.706 336.18C392.58 335.836 392.217 335.651 391.862 335.77C391.518 335.896 391.333 336.259 391.453 336.614C391.887 337.867 392.335 339.098 392.774 340.291C392.83 340.434 392.931 340.557 393.047 340.627C393.21 340.724 393.414 340.752 393.614 340.681C393.957 340.555 394.126 340.167 393.993 339.835C393.554 338.642 393.11 337.431 392.676 336.177L392.706 336.18ZM467.079 341.875C466.693 343.128 466.292 344.355 465.874 345.557C465.772 345.859 465.893 346.184 466.161 346.344C466.196 346.364 466.242 346.392 466.277 346.413C466.614 346.535 466.992 346.351 467.115 346.014C467.54 344.801 467.955 343.55 468.348 342.286C468.459 341.942 468.267 341.576 467.912 341.458C467.568 341.347 467.194 341.55 467.083 341.894L467.079 341.875ZM464.52 349.197C464.046 350.412 463.537 351.607 463.031 352.772C462.892 353.084 463.011 353.439 463.29 353.605C463.313 353.619 463.337 353.633 463.36 353.647C463.695 353.8 464.082 353.653 464.223 353.311C464.755 352.13 465.252 350.928 465.74 349.689C465.874 349.359 465.704 348.958 465.367 348.835C465.025 348.694 464.654 348.867 464.513 349.208L464.52 349.197ZM447.373 210.776C446.691 209.674 445.996 208.565 445.283 207.461C445.088 207.155 444.681 207.069 444.375 207.265C444.069 207.461 443.984 207.868 444.179 208.174C444.881 209.271 445.582 210.368 446.253 211.463C446.307 211.558 446.393 211.626 446.474 211.674C446.672 211.792 446.939 211.794 447.155 211.671C447.461 211.475 447.558 211.075 447.369 210.757L447.373 210.776ZM469.122 334.387C468.82 335.659 468.495 336.916 468.165 338.154C468.089 338.44 468.225 338.742 468.469 338.888C468.515 338.916 468.573 338.95 468.634 338.955C468.985 339.054 469.347 338.844 469.446 338.493C469.783 337.243 470.108 335.986 470.405 334.696C470.492 334.338 470.276 333.988 469.918 333.9C469.56 333.813 469.21 334.03 469.122 334.387ZM461.384 356.269C460.798 357.433 460.19 358.584 459.579 359.687C459.398 359.989 459.508 360.386 459.822 360.573L459.834 360.58C460.148 360.768 460.552 360.646 460.727 360.325C461.352 359.2 461.968 358.037 462.567 356.849C462.731 356.521 462.591 356.122 462.275 355.965C461.947 355.801 461.555 355.929 461.391 356.257L461.384 356.269ZM469.946 330.604C469.889 330.886 470.019 331.169 470.252 331.308C470.31 331.342 470.38 331.384 470.459 331.384C470.812 331.453 471.169 331.224 471.238 330.871C471.503 329.61 471.739 328.315 471.964 327.014C472.022 326.654 471.787 326.308 471.426 326.251C471.066 326.194 470.721 326.429 470.663 326.789C470.445 328.079 470.192 329.347 469.946 330.604ZM472.722 299.732C472.722 299.969 472.852 300.173 473.038 300.285C473.143 300.347 473.262 300.386 473.389 300.384C473.754 300.381 474.044 300.081 474.041 299.716C474.022 298.427 473.987 297.112 473.933 295.802C473.919 295.431 473.611 295.153 473.251 295.174C472.88 295.189 472.602 295.496 472.623 295.856C472.677 297.166 472.714 298.45 472.733 299.739L472.722 299.732ZM472.171 315.259C472.146 315.512 472.286 315.753 472.495 315.878C472.577 315.927 472.672 315.952 472.774 315.966C473.137 315.993 473.454 315.725 473.493 315.37C473.602 314.078 473.699 312.78 473.792 311.462C473.819 311.1 473.533 310.787 473.171 310.76C472.808 310.733 472.495 311.019 472.468 311.381C472.382 312.687 472.292 313.974 472.178 315.247L472.171 315.259ZM419.552 377.599C418.494 376.967 417.449 376.233 416.417 375.426C416.135 375.211 415.712 375.258 415.497 375.54C415.275 375.833 415.329 376.244 415.61 376.459C416.69 377.293 417.78 378.055 418.885 378.715C419.199 378.903 419.608 378.8 419.788 378.497C419.976 378.183 419.884 377.782 419.57 377.594L419.552 377.599ZM403.989 360.841C403.334 359.771 402.677 358.653 402.041 357.5C401.864 357.189 401.459 357.074 401.149 357.251C400.838 357.428 400.722 357.832 400.899 358.143C401.552 359.322 402.221 360.447 402.88 361.535C402.934 361.63 403.02 361.697 403.101 361.746C403.299 361.864 403.566 361.866 403.782 361.742C404.088 361.547 404.185 361.147 403.996 360.829L403.989 360.841ZM434.02 381.003C432.763 381.152 431.509 381.192 430.246 381.115C429.883 381.088 429.57 381.375 429.543 381.737C429.53 381.997 429.665 382.22 429.862 382.338C429.955 382.393 430.051 382.419 430.153 382.433C431.477 382.514 432.84 382.476 434.164 382.32C434.519 382.28 434.781 381.947 434.741 381.592C434.689 381.23 434.368 380.975 434.013 381.015L434.02 381.003ZM471.835 323.719C472.195 323.776 472.536 323.522 472.582 323.155C472.763 321.875 472.939 320.576 473.085 319.275C473.124 318.92 472.863 318.59 472.508 318.551C472.141 318.506 471.823 318.773 471.784 319.129C471.638 320.43 471.476 321.705 471.283 322.979C471.244 323.255 471.377 323.508 471.598 323.64C471.668 323.682 471.756 323.719 471.846 323.725L471.835 323.719ZM473.963 307.558C474.012 306.261 474.037 304.951 474.051 303.634C474.059 303.277 473.766 302.975 473.401 302.978C473.037 302.981 472.742 303.263 472.745 303.628C472.739 304.933 472.709 306.224 472.649 307.514C472.642 307.762 472.766 307.978 472.975 308.103C473.068 308.159 473.175 308.191 473.284 308.193C473.653 308.209 473.955 307.915 473.963 307.558ZM448.566 374.769C448.326 374.483 447.922 374.447 447.637 374.687C446.633 375.523 445.61 376.284 444.569 376.971C444.262 377.167 444.177 377.574 444.384 377.887C444.445 377.97 444.513 378.042 444.594 378.091C444.803 378.216 445.07 378.218 445.293 378.083C446.379 377.374 447.441 376.573 448.478 375.709C448.756 375.481 448.799 375.065 448.559 374.78L448.566 374.769ZM458.512 362.82C458.182 362.607 457.803 362.712 457.604 363.019C456.895 364.126 456.178 365.196 455.434 366.203C455.223 366.503 455.284 366.902 455.577 367.125C455.589 367.132 455.612 367.146 455.624 367.153C455.915 367.326 456.291 367.251 456.488 366.974C457.245 365.944 457.984 364.839 458.699 363.72C458.887 363.407 458.807 363.012 458.5 362.813L458.512 362.82ZM426.535 380.54C425.336 380.249 424.127 379.843 422.944 379.341C422.602 379.2 422.226 379.354 422.074 379.689C421.942 379.989 422.061 380.344 422.34 380.511C422.363 380.525 422.387 380.538 422.422 380.559C423.67 381.084 424.955 381.521 426.219 381.834C426.577 381.922 426.928 381.705 427.015 381.347C427.103 380.989 426.886 380.639 426.528 380.551L426.535 380.54ZM453.997 369.163C453.723 368.935 453.296 368.964 453.068 369.239C452.234 370.239 451.349 371.193 450.475 372.075C450.213 372.329 450.218 372.742 450.472 373.004C450.519 373.032 450.558 373.071 450.605 373.099C450.86 373.252 451.197 373.217 451.408 372.995C452.314 372.085 453.202 371.101 454.069 370.073C454.303 369.787 454.267 369.371 453.993 369.144L453.997 369.163ZM442.153 379.141C442.001 378.814 441.599 378.668 441.276 378.838C440.123 379.396 438.928 379.865 437.753 380.22C437.405 380.328 437.201 380.695 437.309 381.043C437.358 381.199 437.463 381.34 437.602 381.424C437.753 381.514 437.939 381.546 438.132 381.488C439.381 381.114 440.639 380.619 441.855 380.036C442.182 379.884 442.327 379.482 442.157 379.16L442.153 379.141ZM470.607 268.622C470.345 267.345 470.063 266.072 469.77 264.793C469.682 264.44 469.34 264.22 468.975 264.302C468.622 264.391 468.402 264.733 468.484 265.098C468.784 266.365 469.054 267.63 469.312 268.889C469.358 269.075 469.468 269.235 469.619 269.325C469.759 269.408 469.926 269.445 470.093 269.403C470.451 269.333 470.678 268.979 470.607 268.622ZM408.403 367.185C407.639 366.192 406.873 365.151 406.128 364.075C405.925 363.78 405.512 363.706 405.205 363.902C404.911 364.105 404.837 364.518 405.04 364.813C405.802 365.915 406.584 366.982 407.364 368C407.42 368.065 407.483 368.118 407.553 368.16C407.774 368.292 408.078 368.284 408.291 368.112C408.581 367.891 408.624 367.475 408.403 367.185ZM467.869 261.717C468.009 261.8 468.194 261.832 468.362 261.79C468.715 261.701 468.93 261.341 468.841 260.988C468.523 259.725 468.186 258.467 467.837 257.202C467.748 256.849 467.381 256.645 467.021 256.746C466.668 256.835 466.464 257.202 466.565 257.562C466.92 258.815 467.246 260.067 467.571 261.318C467.613 261.485 467.73 261.633 467.869 261.717ZM473.463 287.98C473.429 287.613 473.115 287.347 472.748 287.38C472.381 287.413 472.115 287.728 472.148 288.094C472.258 289.39 472.367 290.686 472.441 291.961C472.449 292.186 472.586 292.379 472.761 292.483C472.877 292.553 473.002 292.58 473.149 292.573C473.509 292.551 473.794 292.233 473.761 291.866C473.681 290.572 473.579 289.265 473.458 287.962L473.463 287.98ZM472.079 284.724C472.195 284.794 472.344 284.835 472.486 284.809C472.841 284.769 473.114 284.444 473.062 284.081C472.916 282.795 472.758 281.501 472.576 280.194C472.525 279.832 472.197 279.589 471.841 279.629C471.479 279.681 471.236 280.009 471.276 280.364C471.453 281.653 471.611 282.946 471.753 284.214C471.779 284.435 471.9 284.602 472.074 284.706L472.079 284.724ZM413.543 372.921C412.647 372.07 411.751 371.141 410.871 370.158C410.624 369.884 410.213 369.859 409.94 370.106C409.666 370.353 409.641 370.764 409.888 371.038C410.784 372.046 411.715 372.997 412.639 373.88C412.686 373.908 412.714 373.94 412.76 373.968C413.016 374.121 413.353 374.085 413.57 373.852C413.821 373.592 413.804 373.171 413.543 372.921ZM471.358 272.462C471.288 272.104 470.941 271.866 470.583 271.936C470.226 272.006 469.994 272.341 470.058 272.711C470.29 273.985 470.516 275.272 470.718 276.544C470.751 276.753 470.867 276.901 471.03 276.999C471.158 277.075 471.314 277.105 471.467 277.086C471.829 277.034 472.068 276.688 472.016 276.326C471.821 275.041 471.595 273.755 471.358 272.462Z" fill="#FBD601"/>
<path d="M29.2802 142.506C29.0654 142.664 28.7865 142.661 28.5747 142.54C28.4923 142.494 28.4166 142.435 28.366 142.359C27.593 141.281 26.8569 140.192 26.1578 139.093C25.9623 138.779 26.0506 138.377 26.3644 138.182C26.6782 137.986 27.0799 138.075 27.2753 138.388C27.9458 139.456 28.6701 140.538 29.4263 141.591C29.6352 141.882 29.5704 142.297 29.2802 142.506ZM77.917 52.3758C78.2578 52.2424 78.4184 51.8507 78.2783 51.5217C78.145 51.1809 77.7533 51.0204 77.4243 51.1604C76.1972 51.6464 74.9936 52.1459 73.8136 52.6587C73.4846 52.7987 73.324 53.1904 73.4641 53.5194C73.5231 53.6621 73.6207 53.7644 73.7385 53.8314C73.915 53.9319 74.1267 53.9432 74.3248 53.869C75.4981 53.3679 76.7017 52.8685 77.9103 52.3875L77.917 52.3758ZM25.3374 135.057C24.7255 133.915 24.1573 132.75 23.6428 131.6C23.491 131.264 23.1044 131.122 22.7754 131.262C22.4397 131.414 22.2976 131.801 22.4376 132.13C22.9622 133.316 23.5473 134.506 24.176 135.674C24.2367 135.787 24.3293 135.871 24.4352 135.931C24.6235 136.038 24.8655 136.051 25.0719 135.935C25.3907 135.758 25.521 135.364 25.3441 135.046L25.3374 135.057ZM64.0513 57.9025C63.8928 57.5786 63.481 57.4534 63.1688 57.6185C61.9839 58.2221 60.8293 58.8273 59.6981 59.4458C59.3793 59.6228 59.2607 60.0228 59.4377 60.3417C59.4984 60.4541 59.5909 60.5379 59.6969 60.5982C59.8852 60.7054 60.1271 60.7184 60.3336 60.6021C61.458 59.9953 62.6009 59.3834 63.7673 58.785C64.0912 58.6265 64.2282 58.2214 64.0513 57.9025ZM21.1082 124.361C21.0118 124.01 20.6536 123.791 20.296 123.899C19.9451 123.995 19.7256 124.353 19.8338 124.711C20.1603 125.972 20.5473 127.236 20.9897 128.485C21.042 128.64 21.1565 128.767 21.286 128.841C21.4508 128.935 21.644 128.951 21.8354 128.889C22.1812 128.774 22.3536 128.389 22.2387 128.043C21.8065 126.831 21.4363 125.592 21.12 124.368L21.1082 124.361ZM92.1573 45.8622C90.8981 46.2677 89.6692 46.6747 88.4403 47.0818C88.0944 47.1967 87.9103 47.575 88.0252 47.9208C88.0775 48.0753 88.192 48.2028 88.3215 48.2764C88.4745 48.3635 88.6795 48.3867 88.8524 48.3292C90.0696 47.9155 91.2985 47.5084 92.5392 47.108C92.8851 46.9931 93.0809 46.6215 92.9661 46.2757C92.8512 45.9298 92.4796 45.734 92.1338 45.8488L92.1573 45.8622ZM39.8169 152.989C38.8444 152.124 37.9037 151.23 36.9932 150.338C36.7408 150.07 36.3091 150.089 36.0592 150.337C35.8027 150.596 35.8102 151.021 36.076 151.266C36.9916 152.176 37.9625 153.071 38.9401 153.955C38.9754 153.975 39.0158 154.014 39.0511 154.034C39.3101 154.181 39.6644 154.133 39.8706 153.908C40.1154 153.642 40.0895 153.222 39.8236 152.977L39.8169 152.989ZM85.5892 48.7786C85.4677 48.4446 85.0894 48.2605 84.7435 48.3753C83.5063 48.8244 82.2808 49.2802 81.0738 49.7309C80.733 49.8643 80.5674 50.2375 80.6822 50.5833C80.7413 50.726 80.844 50.8468 80.9735 50.9205C81.1383 51.0142 81.3432 51.0374 81.5413 50.9631C82.7366 50.5057 83.9554 50.0617 85.1926 49.6126C85.5267 49.491 85.7108 49.1127 85.5959 48.7669L85.5892 48.7786ZM107.978 41.9933C107.882 41.6424 107.524 41.423 107.173 41.5193C105.893 41.8509 104.644 42.1841 103.395 42.5173C103.044 42.6137 102.836 42.9786 102.932 43.3295C102.971 43.5075 103.098 43.6417 103.239 43.7221C103.38 43.8025 103.567 43.8307 103.733 43.785C104.97 43.4451 106.22 43.1119 107.492 42.7921C107.843 42.6957 108.063 42.3375 107.966 41.9866L107.978 41.9933ZM34.3155 147.568C33.4335 146.599 32.5884 145.619 31.7854 144.648C31.5581 144.363 31.1414 144.328 30.8562 144.556C30.5711 144.783 30.5365 145.199 30.7638 145.485C31.572 146.474 32.4339 147.479 33.3395 148.462C33.3849 148.519 33.4438 148.552 33.5026 148.586C33.7498 148.726 34.0606 148.701 34.2719 148.494C34.5402 148.241 34.5562 147.83 34.3155 147.568ZM96.2766 45.9622C97.5039 45.5854 98.7429 45.2153 100.006 44.8585C100.356 44.7621 100.552 44.3905 100.468 44.0463C100.371 43.6954 99.9997 43.4995 99.6555 43.5841C98.3862 43.9526 97.1353 44.3161 95.908 44.6929C95.5622 44.8078 95.3612 45.1609 95.4694 45.5185C95.5151 45.6848 95.6295 45.8122 95.7708 45.8926C95.9238 45.9797 96.1103 46.0079 96.2833 45.9505L96.2766 45.9622ZM25.1656 91.2969C25.4834 91.4777 25.8712 91.3712 26.0639 91.06C26.6935 89.9535 27.3887 88.8688 28.1074 87.7974C28.3118 87.493 28.2304 87.0882 27.926 86.8838C27.6266 86.6979 27.2169 86.7608 27.0125 87.0653C26.2686 88.1535 25.5651 89.2803 24.9103 90.4036C24.7294 90.7215 24.8293 91.1211 25.1471 91.3019L25.1656 91.2969ZM22.72 97.9771C23.1715 96.8004 23.6901 95.6152 24.2558 94.4567C24.4131 94.1255 24.2763 93.736 23.9451 93.5787C23.6139 93.4214 23.2244 93.5581 23.0671 93.8894C22.488 95.0714 21.961 96.2986 21.4895 97.5107C21.3758 97.82 21.4907 98.1658 21.7732 98.3266C21.7967 98.34 21.8321 98.3601 21.8556 98.3735C22.2002 98.5073 22.5796 98.3335 22.7066 98.0007L22.72 97.9771ZM29.4576 84.7947C29.4576 84.7947 29.5165 84.8282 29.54 84.8416C29.8225 85.0023 30.1903 84.9311 30.3864 84.6687C31.1556 83.6728 31.9803 82.6617 32.8336 81.6824C33.0666 81.4099 33.0406 80.9899 32.768 80.7569C32.4955 80.5239 32.0756 80.5499 31.8426 80.8225C30.9759 81.8252 30.1327 82.8414 29.3501 83.8608C29.1221 84.1519 29.185 84.5617 29.4643 84.7829L29.4576 84.7947ZM34.5134 78.8673C34.5134 78.8673 34.5941 78.9444 34.6412 78.9712C34.9002 79.1185 35.2243 79.0692 35.4356 78.8622C36.3092 77.9569 37.2499 77.043 38.2008 76.1661C38.4692 75.9136 38.4852 75.502 38.2327 75.2337C37.9803 74.9653 37.5687 74.9493 37.3004 75.2018C36.3361 76.1022 35.3886 77.0279 34.4899 77.9501C34.2333 78.2093 34.2408 78.6343 34.5067 78.879L34.5134 78.8673ZM66.6451 57.0411C66.8217 57.1415 67.0569 57.1663 67.2566 57.0618C68.408 56.5171 69.5779 55.9673 70.778 55.4192C71.1137 55.2674 71.2558 54.8808 71.104 54.5451C70.9522 54.2094 70.5656 54.0673 70.2299 54.2191C69.018 54.7605 67.8481 55.3103 66.6833 55.8785C66.3594 56.037 66.2173 56.4237 66.3691 56.7594C66.4231 56.8836 66.5207 56.9859 66.6384 57.0528L66.6451 57.0411ZM19.8463 116.802C19.8171 116.443 19.5042 116.171 19.133 116.194C18.7735 116.223 18.5019 116.536 18.5245 116.907C18.6243 118.21 18.7896 119.535 19.0053 120.827C19.0426 121.035 19.1672 121.2 19.332 121.293C19.4615 121.367 19.6178 121.394 19.7706 121.371C20.1317 121.312 20.3746 120.967 20.3085 120.618C20.0912 119.357 19.936 118.069 19.8396 116.814L19.8463 116.802ZM46.2826 68.6726C46.3449 68.7548 46.4088 68.8067 46.4912 68.8536C46.7149 68.9809 46.9887 68.9653 47.1967 68.8187C48.2251 68.0794 49.2838 67.3417 50.3727 66.6056C50.6747 66.4035 50.7512 65.9951 50.5491 65.6931C50.347 65.3911 49.9386 65.3146 49.6366 65.5167C48.5292 66.2578 47.4521 67.0006 46.417 67.7517C46.1267 67.9606 46.062 68.3756 46.2708 68.6659L46.2826 68.6726ZM21.4869 101.623C21.5904 101.277 21.3982 100.903 21.0453 100.811C20.699 100.707 20.3366 100.906 20.233 101.252C19.8557 102.518 19.5372 103.817 19.2808 105.089C19.2292 105.372 19.3658 105.652 19.6012 105.786C19.6601 105.819 19.7189 105.853 19.7912 105.863C20.1391 105.936 20.4914 105.7 20.5647 105.352C20.8195 104.11 21.1296 102.853 21.4869 101.623ZM44.2158 70.2235C43.9885 69.9383 43.5785 69.892 43.3 70.1075C42.255 70.9309 41.2401 71.7559 40.2555 72.5825C39.9822 72.8165 39.9476 73.2332 40.1816 73.5066C40.2271 73.5636 40.291 73.6156 40.3616 73.6557C40.5971 73.7897 40.9011 73.7757 41.1175 73.5872C42.0836 72.7656 43.0799 71.9457 44.1183 71.1341C44.4035 70.9069 44.4498 70.4969 44.2342 70.2184L44.2158 70.2235ZM19.9668 109.142C20.0048 108.774 19.7489 108.457 19.3809 108.419C19.0129 108.381 18.6959 108.637 18.6579 109.005C18.5209 110.313 18.4376 111.637 18.4148 112.964C18.4136 113.213 18.5416 113.426 18.7535 113.547C18.8477 113.6 18.9553 113.63 19.0645 113.63C19.4341 113.638 19.7225 113.35 19.7302 112.981C19.7564 111.702 19.8314 110.42 19.9601 109.153L19.9668 109.142ZM57.2041 61.6107C57.0271 61.2918 56.6204 61.1851 56.2948 61.3738C55.1487 62.0461 54.0328 62.7201 52.9354 63.389C52.6216 63.5845 52.5333 63.9861 52.7287 64.2999C52.7843 64.3939 52.8651 64.471 52.9593 64.5246C53.1594 64.6384 53.4198 64.6464 53.6329 64.5183C54.7186 63.8427 55.8278 63.1805 56.9554 62.5132C57.2743 62.3363 57.3811 61.9295 57.1856 61.6158L57.2041 61.6107ZM133.92 183.442C132.617 183.433 131.326 183.4 130.036 183.367C129.667 183.359 129.366 183.641 129.359 184.01C129.357 184.259 129.491 184.49 129.691 184.604C129.785 184.658 129.892 184.688 130.002 184.688C131.292 184.721 132.601 184.748 133.916 184.764C134.274 184.766 134.581 184.473 134.582 184.115C134.583 183.757 134.29 183.45 133.932 183.449L133.92 183.442ZM118.39 182.693C117.086 182.574 115.801 182.451 114.522 182.315C114.154 182.277 113.837 182.533 113.799 182.901C113.773 183.167 113.911 183.417 114.135 183.544C114.205 183.584 114.295 183.619 114.385 183.624C115.676 183.766 116.979 183.885 118.283 184.003C118.639 184.035 118.963 183.767 118.994 183.411C119.026 183.055 118.758 182.731 118.402 182.7L118.39 182.693ZM126.15 183.213C124.843 183.155 123.55 183.073 122.274 182.986C121.912 182.967 121.6 183.241 121.568 183.598C121.549 183.851 121.694 184.09 121.905 184.21C121.988 184.257 122.084 184.28 122.186 184.292C123.48 184.374 124.773 184.455 126.092 184.52C126.455 184.539 126.755 184.258 126.775 183.896C126.794 183.533 126.52 183.221 126.15 183.213ZM95.3509 179.229C94.0737 178.954 92.8099 178.655 91.5646 178.352C91.2116 178.26 90.8542 178.478 90.7742 178.837C90.7042 179.125 90.8458 179.423 91.093 179.564C91.1401 179.591 91.199 179.624 91.2595 179.628C92.5166 179.938 93.7871 180.224 95.0761 180.506C95.4357 180.586 95.7814 180.362 95.8613 180.002C95.9413 179.643 95.7173 179.297 95.3576 179.217L95.3509 179.229ZM110.664 181.865C109.369 181.705 108.087 181.52 106.812 181.325C106.45 181.275 106.11 181.517 106.06 181.879C106.015 182.149 106.158 182.418 106.382 182.545C106.453 182.585 106.53 182.614 106.614 182.63C107.889 182.826 109.19 183.005 110.485 183.166C110.847 183.216 111.182 182.955 111.213 182.598C111.263 182.237 111.002 181.902 110.646 181.87L110.664 181.865ZM102.98 180.718C101.688 180.497 100.421 180.259 99.1539 180.021C98.7994 179.96 98.4537 180.184 98.3737 180.544C98.3222 180.826 98.4588 181.106 98.6942 181.24C98.7531 181.274 98.8119 181.307 98.9026 181.312C100.181 181.557 101.46 181.801 102.753 182.022C103.107 182.084 103.448 181.841 103.509 181.487C103.571 181.132 103.328 180.792 102.974 180.73L102.98 180.718ZM141.7 183.381C140.388 183.414 139.101 183.43 137.814 183.445C137.456 183.444 137.161 183.744 137.16 184.102C137.159 184.35 137.294 184.552 137.494 184.666C137.588 184.719 137.707 184.756 137.823 184.744C139.122 184.735 140.427 184.714 141.739 184.681C142.103 184.671 142.387 184.364 142.388 184.007C142.377 183.642 142.071 183.359 141.713 183.358L141.7 183.381ZM157.223 182.444C155.925 182.563 154.633 182.669 153.342 182.776C152.982 182.805 152.711 183.118 152.733 183.489C152.745 183.714 152.887 183.904 153.063 184.004C153.169 184.064 153.307 184.096 153.435 184.091C154.727 183.984 156.03 183.884 157.335 183.754C157.694 183.725 157.961 183.394 157.932 183.034C157.902 182.675 157.571 182.408 157.212 182.438L157.223 182.444ZM165.688 182.165C165.64 181.811 165.309 181.544 164.954 181.592C163.659 181.759 162.378 181.902 161.096 182.046C160.73 182.087 160.47 182.406 160.511 182.773C160.542 182.993 160.66 183.169 160.837 183.269C160.954 183.336 161.092 183.368 161.238 183.358C162.52 183.214 163.82 183.066 165.115 182.899C165.469 182.851 165.735 182.52 165.688 182.165ZM149.463 183.046C148.155 183.128 146.872 183.192 145.577 183.25C145.212 183.261 144.929 183.567 144.951 183.938C144.957 184.175 145.091 184.376 145.28 184.483C145.386 184.544 145.505 184.581 145.633 184.575C146.928 184.517 148.23 184.448 149.538 184.367C149.909 184.344 150.181 184.031 150.152 183.672C150.122 183.312 149.816 183.029 149.457 183.058L149.463 183.046ZM52.2195 162.275C51.1162 161.585 50.0382 160.878 48.9735 160.147C48.6707 159.913 48.2643 160.024 48.0666 160.317C47.8623 160.621 47.9436 161.026 48.2363 161.224C49.301 161.954 50.4026 162.674 51.5176 163.371L51.5412 163.385C51.8472 163.559 52.2284 163.464 52.4261 163.171C52.6187 162.86 52.5256 162.449 52.2262 162.263L52.2195 162.275ZM130.32 37.7833C130.681 37.7238 130.912 37.3723 130.852 37.0112C130.786 36.6619 130.441 36.419 130.08 36.4784C128.787 36.7244 127.513 36.9652 126.25 37.2128C125.894 37.2907 125.658 37.6237 125.729 37.9915C125.773 38.188 125.886 38.3457 126.051 38.4395C126.18 38.5131 126.348 38.5464 126.508 38.5125C127.77 38.265 129.045 38.0241 130.338 37.7782L130.32 37.7833ZM122.411 37.9891C121.123 38.2535 119.847 38.5246 118.594 38.8091C118.238 38.887 118.007 39.2386 118.085 39.5946C118.129 39.791 118.249 39.937 118.402 40.024C118.543 40.1044 118.699 40.131 118.87 40.1038C120.123 39.8193 121.393 39.56 122.681 39.2956C123.037 39.2177 123.261 38.8779 123.19 38.5102C123.112 38.1542 122.76 37.923 122.404 38.0009L122.411 37.9891ZM87.8016 177.379C86.5461 177.039 85.2973 176.687 84.067 176.33C83.7207 176.226 83.3582 176.425 83.2547 176.771C83.1662 177.064 83.2945 177.386 83.5534 177.533C83.6005 177.56 83.6358 177.58 83.6896 177.595C84.9317 177.959 86.1923 178.318 87.4595 178.665C87.8125 178.757 88.175 178.558 88.2667 178.205C88.3585 177.852 88.1478 177.483 87.8066 177.398L87.8016 177.379ZM58.9259 166.153C58.0414 165.681 57.1754 165.204 56.3279 164.722L55.5392 164.273C55.2717 164.058 54.8218 164.192 54.6409 164.51C54.4601 164.827 54.5599 165.227 54.8777 165.408L55.6782 165.863C56.5375 166.352 57.4086 166.848 58.3115 167.315C58.6293 167.496 59.0306 167.366 59.1996 167.041C59.3805 166.723 59.2555 166.341 58.9259 166.153ZM45.8314 157.892C44.7817 157.107 43.769 156.313 42.7747 155.514C42.4954 155.292 42.0755 155.318 41.8476 155.609C41.6079 155.894 41.6523 156.308 41.9433 156.536C42.9427 157.354 43.979 158.162 45.0404 158.953C45.0639 158.967 45.0875 158.98 45.111 158.993C45.3935 159.154 45.7613 159.083 45.9641 158.809C46.1802 158.511 46.1173 158.101 45.8314 157.892ZM114.787 39.6661C113.51 39.9674 112.232 40.2687 110.984 40.5717C110.633 40.6681 110.421 41.0145 110.498 41.3705C110.549 41.5552 110.657 41.6944 110.81 41.7815C110.951 41.8619 111.119 41.8952 111.286 41.8495C112.533 41.5466 113.799 41.2385 115.07 40.949C115.426 40.871 115.646 40.5128 115.568 40.1568C115.49 39.8008 115.132 39.5814 114.776 39.6594L114.787 39.6661ZM73.0469 172.583C71.8348 172.112 70.6295 171.628 69.4426 171.14C69.1047 170.995 68.7203 171.15 68.5865 171.494C68.4544 171.809 68.581 172.161 68.8635 172.322C68.887 172.336 68.9106 172.349 68.9341 172.362C70.1261 172.869 71.3314 173.352 72.5737 173.826C72.9183 173.959 73.2977 173.786 73.4247 173.453C73.5585 173.108 73.3966 172.736 73.052 172.602L73.0469 172.583ZM80.3624 175.172C79.1286 174.766 77.8949 174.36 76.6812 173.919C76.3416 173.804 75.9623 173.977 75.847 174.317C75.7334 174.626 75.8734 174.955 76.1441 175.109C76.1794 175.129 76.2147 175.149 76.2501 175.17C77.4704 175.599 78.7093 176.024 79.9615 176.424C80.3011 176.54 80.6753 176.348 80.7973 175.996C80.9126 175.657 80.7204 175.282 80.3809 175.167L80.3624 175.172ZM138.537 35.6651C138.478 35.3041 138.133 35.0611 137.784 35.1273C136.492 35.343 135.201 35.5587 133.933 35.7877C133.572 35.8472 133.329 36.192 133.4 36.5598C133.437 36.768 133.562 36.9324 133.727 37.0262C133.856 37.0999 134.012 37.1265 134.165 37.1043C135.433 36.8753 136.706 36.6646 137.998 36.4489C138.359 36.3895 138.602 36.0447 138.535 35.6954L138.537 35.6651ZM65.875 169.578C64.6847 169.041 63.5196 168.487 62.3678 167.909C62.0366 167.752 61.6471 167.889 61.4847 168.201C61.3341 168.521 61.4473 168.897 61.7416 169.064L61.7769 169.084C62.9354 169.65 64.1241 170.217 65.3262 170.761C65.6574 170.919 66.0418 170.763 66.1991 170.432C66.3565 170.101 66.1945 169.728 65.87 169.559L65.875 169.578Z" fill="#060644"/>
<path d="M165.891 32.9983C169.317 32.4545 173.419 31.1888 173.295 30.4482C173.171 29.7076 168.885 29.7624 165.453 30.318C165.14 30.374 164.835 30.4182 164.541 30.4691C164.169 30.1641 163.39 29.5339 162.396 28.7344C162.408 28.7411 162.431 28.7544 162.443 28.7611L163.367 28.6167C163.483 28.6047 163.556 28.4752 163.521 28.3459L163.375 27.4525C163.358 27.3182 163.253 27.2276 163.131 27.2514L162.207 27.3958C162.207 27.3958 162.12 27.4397 162.081 27.4801L161.005 27.6466C160.162 26.9645 159.243 26.2236 158.336 25.4895L159.242 25.3501C159.358 25.3381 159.431 25.2086 159.396 25.0793L159.25 24.1859C159.233 24.0516 159.128 23.961 159.006 23.9848L158.082 24.1292C158.082 24.1292 157.995 24.1731 157.956 24.2135L156.917 24.3699C154.608 22.5111 152.665 20.9691 152.581 20.9525C152.371 20.9109 151.023 21.172 151.023 21.172C150.699 21.2213 150.452 21.2991 150.45 21.3293C150.46 21.3662 150.82 21.337 151.126 21.2928L154.828 25.6588C154.576 25.718 154.401 25.8057 154.41 25.8729C154.423 25.9585 154.695 25.9732 155.008 25.9172L155.045 25.907L155.769 26.7708C155.535 26.825 155.361 26.9127 155.369 26.9799C155.383 27.0655 155.655 27.0802 155.967 27.0241L156.636 27.794L156.934 28.4469C156.652 28.5046 156.429 28.5957 156.437 28.6629C156.451 28.7485 156.723 28.7631 157.035 28.7071L157.047 28.7138L157.646 29.9894C157.364 30.0471 157.14 30.1382 157.161 30.2121C157.174 30.2977 157.447 30.3123 157.759 30.2563L158.302 31.438C156.006 31.8302 155.099 31.9998 153.398 32.2784C151.685 32.5503 150.051 32.9296 148.69 33.3235C147.421 32.3212 144.94 30.3014 144.94 30.3014L143.966 30.3704L145.631 34.3722C145.339 34.5021 145.109 34.605 144.958 34.7061C144.258 34.8686 143.826 34.9971 143.835 35.0642C143.843 35.1314 144.28 35.1306 144.975 35.0588C145.155 35.0988 145.427 35.1134 145.772 35.138L145.422 39.5046L146.374 39.2828C146.374 39.2828 148.227 36.4102 149.091 35.1101C150.465 35.0505 152.047 34.9536 153.724 34.801C155.846 34.4662 156.787 34.3469 158.743 34.0578L158.59 35.3415C158.259 35.4026 158.017 35.4988 158.031 35.5844C158.039 35.6516 158.274 35.6764 158.573 35.6439L158.406 37.0604L158.394 37.0537C158.064 37.1147 157.815 37.2227 157.835 37.2966C157.844 37.3638 158.091 37.3952 158.378 37.3561L158.304 38.0618L157.919 39.0116C157.595 39.0609 157.347 39.1688 157.36 39.2545C157.369 39.3217 157.555 39.3499 157.806 39.3209L157.379 40.3716L157.356 40.3582C157.025 40.4193 156.776 40.5272 156.79 40.6129C156.798 40.6801 157.003 40.7032 157.254 40.6742L155.083 45.9681C154.782 46.0308 154.426 46.1087 154.425 46.1389C154.435 46.1759 154.69 46.1653 155.014 46.116C155.014 46.116 156.388 45.9472 156.557 45.8411C156.626 45.8023 157.993 43.7285 159.618 41.2562L160.658 41.0997C160.658 41.0997 160.752 41.1533 160.801 41.1499L161.724 41.0054C161.84 40.9934 161.914 40.864 161.878 40.7347L161.732 39.8412C161.715 39.7069 161.611 39.6164 161.488 39.6401L160.583 39.7795C161.218 38.8006 161.853 37.8218 162.454 36.9018L163.531 36.7352C163.531 36.7352 163.625 36.7888 163.674 36.7854L164.597 36.6409C164.713 36.6289 164.787 36.4995 164.752 36.3702L164.605 35.4767C164.588 35.3424 164.484 35.2519 164.362 35.2756L163.438 35.4201C163.438 35.4201 163.424 35.4436 163.387 35.4538C164.081 34.3992 164.617 33.5667 164.882 33.1563C165.176 33.1054 165.481 33.0612 165.805 33.0119L165.891 32.9983Z" fill="#060644"/>
<path d="M429.488 185.705C427.38 182.947 424.306 179.959 423.708 180.406C423.114 180.872 425.209 184.601 427.317 187.358C427.51 187.616 427.699 187.854 427.887 188.093C427.798 188.56 427.614 189.555 427.386 190.807C427.375 190.8 427.389 190.777 427.372 190.752L426.802 190.016C426.73 189.926 426.59 189.922 426.481 189.998L425.76 190.546C425.651 190.623 425.628 190.767 425.7 190.857L426.271 191.592C426.271 191.592 426.352 191.641 426.399 191.669L427.051 192.531C426.855 193.598 426.635 194.76 426.428 195.898L425.869 195.17C425.797 195.08 425.657 195.075 425.548 195.152L424.827 195.699C424.718 195.776 424.695 195.92 424.767 196.011L425.338 196.746C425.338 196.746 425.419 196.794 425.466 196.822L426.101 197.659C425.573 200.578 425.141 203.018 425.16 203.092C425.211 203.296 426.091 204.358 426.091 204.358C426.285 204.616 426.471 204.806 426.503 204.778C426.517 204.755 426.333 204.455 426.151 204.205L428.227 198.882C428.394 199.076 428.562 199.192 428.601 199.153C428.666 199.097 428.556 198.858 428.363 198.6L428.34 198.586L428.754 197.524C428.917 197.7 429.065 197.821 429.123 197.777C429.188 197.721 429.079 197.482 428.885 197.224L429.255 196.262L429.686 195.699C429.87 195.919 430.058 196.079 430.123 196.023C430.188 195.967 430.079 195.728 429.885 195.471L429.874 195.464L430.731 194.32C430.915 194.54 431.099 194.681 431.157 194.637C431.222 194.581 431.112 194.342 430.919 194.085L430.907 194.078L431.69 193.031C433.131 194.87 433.716 195.582 434.761 196.948C435.819 198.321 436.934 199.571 437.932 200.593C437.649 202.175 437.054 205.338 437.054 205.338L437.588 206.161L440.312 202.788C440.559 202.983 440.773 203.126 440.936 203.223C441.418 203.764 441.734 204.079 441.785 204.046C441.843 204.002 441.629 203.622 441.247 203.046C441.193 202.872 441.09 202.622 440.932 202.306L444.928 200.528L444.271 199.805C444.271 199.805 440.859 199.549 439.314 199.415C438.613 198.239 437.76 196.893 436.844 195.495C435.533 193.781 434.977 193.022 433.796 191.433L434.998 190.953C435.191 191.21 435.403 191.384 435.468 191.328C435.526 191.284 435.433 191.07 435.263 190.827L436.59 190.294L436.602 190.301C436.795 190.559 437.007 190.733 437.072 190.677C437.13 190.633 437.043 190.407 436.866 190.175L437.53 189.909L438.559 189.798C438.752 190.056 438.964 190.229 439.029 190.174C439.087 190.129 439.014 189.96 438.884 189.756L440.01 189.64L440.034 189.654C440.22 189.923 440.439 190.085 440.497 190.041C440.554 189.996 440.477 189.808 440.335 189.597L446.018 188.985C446.206 189.223 446.453 189.497 446.479 189.481C446.511 189.453 446.376 189.23 446.183 188.973C446.183 188.973 445.405 187.845 445.219 187.734C445.149 187.692 442.675 187.477 439.729 187.232L439.093 186.394C439.093 186.394 439.096 186.285 439.068 186.253L438.497 185.518C438.425 185.427 438.286 185.423 438.177 185.5L437.455 186.047C437.346 186.124 437.323 186.268 437.395 186.358L437.954 187.086C436.795 186.993 435.624 186.894 434.537 186.812L433.885 185.949C433.885 185.949 433.887 185.84 433.859 185.808L433.289 185.073C433.216 184.982 433.077 184.978 432.968 185.055L432.247 185.602C432.138 185.679 432.115 185.823 432.187 185.913L432.758 186.648C432.758 186.648 432.792 186.669 432.804 186.676C431.554 186.576 430.558 186.502 430.074 186.465C429.886 186.227 429.704 185.976 429.511 185.719L429.488 185.705Z" fill="#FBD601"/>
<g filter="url(#filter0_dddd_153_900)">
<rect x="233.163" y="447.382" width="36.4317" height="36.4317" rx="18.2159" fill="#2FA6D9"/>
<path fill-rule="evenodd" clip-rule="evenodd" d="M251.379 472.483L251.959 473.023C251.883 473.095 251.792 473.151 251.693 473.19C251.593 473.229 251.486 473.249 251.378 473.249C251.27 473.249 251.164 473.229 251.064 473.19C250.964 473.151 250.874 473.095 250.798 473.023L250.793 473.018L250.779 473.005L250.728 472.957C250.439 472.679 250.155 472.397 249.875 472.111C249.174 471.393 248.502 470.651 247.862 469.886C247.131 469.006 246.383 468.012 245.815 467.029C245.26 466.066 244.821 465.023 244.821 464.068C244.821 460.595 247.765 457.947 251.379 457.947C254.992 457.947 257.936 460.595 257.936 464.068C257.936 465.023 257.498 466.066 256.942 467.028C256.374 468.012 255.627 469.006 254.895 469.886C254 470.957 253.043 471.982 252.03 472.957L251.979 473.005L251.965 473.018L251.96 473.023L251.379 472.483ZM251.379 466.363C252.031 466.363 252.656 466.121 253.118 465.691C253.579 465.26 253.838 464.676 253.838 464.068C253.838 463.459 253.579 462.875 253.118 462.445C252.656 462.014 252.031 461.773 251.379 461.773C250.727 461.773 250.101 462.014 249.64 462.445C249.179 462.875 248.92 463.459 248.92 464.068C248.92 464.676 249.179 465.26 249.64 465.691C250.101 466.121 250.727 466.363 251.379 466.363Z" fill="white"/>
</g>
<g filter="url(#filter1_dddd_153_900)">
<rect x="259.394" y="35.8437" width="36.4317" height="36.4317" rx="18.2159" transform="rotate(-79.6911 259.394 35.8437)" fill="#FACD49"/>
<path d="M276.667 13.1752L287.327 19.2908C287.592 19.439 287.805 19.6661 287.934 19.9402C288.063 20.2143 288.103 20.5216 288.047 20.819C287.997 21.1137 287.857 21.3856 287.645 21.5972C287.433 21.8088 287.16 21.9498 286.864 22.0008L282.638 22.7911L281.735 21.4944L280.275 19.3979C280.165 19.2394 279.996 19.1308 279.805 19.0961C279.614 19.0615 279.418 19.1035 279.259 19.213C279.1 19.3225 278.991 19.4906 278.956 19.6801C278.922 19.8697 278.965 20.0652 279.075 20.2238L280.535 22.3203L281.44 23.6467L279.202 27.2913C279.06 27.568 278.832 27.7917 278.552 27.9292C278.272 28.0668 277.954 28.1108 277.647 28.0549C277.339 27.9989 277.058 27.846 276.844 27.6186C276.63 27.3912 276.496 27.1016 276.46 26.7926L274.461 14.6931C274.401 14.4138 274.425 14.1232 274.531 13.858C274.636 13.5927 274.818 13.3645 275.054 13.2023C275.29 13.04 275.569 12.9508 275.856 12.946C276.143 12.9412 276.425 13.0209 276.667 13.1752Z" fill="white"/>
</g>
<defs>
<filter id="filter0_dddd_153_900" x="226.605" y="445.925" width="49.5472" height="60.4767" filterUnits="userSpaceOnUse" color-interpolation-filters="sRGB">
<feFlood flood-opacity="0" result="BackgroundImageFix"/>
<feColorMatrix in="SourceAlpha" type="matrix" values="0 0 0 0 0 0 0 0 0 0 0 0 0 0 0 0 0 0 127 0" result="hardAlpha"/>
<feOffset dy="0.728635"/>
<feGaussianBlur stdDeviation="1.09295"/>
<feColorMatrix type="matrix" values="0 0 0 0 0.54902 0 0 0 0 0.54902 0 0 0 0 0.54902 0 0 0 0.1 0"/>
<feBlend mode="normal" in2="BackgroundImageFix" result="effect1_dropShadow_153_900"/>
<feColorMatrix in="SourceAlpha" type="matrix" values="0 0 0 0 0 0 0 0 0 0 0 0 0 0 0 0 0 0 127 0" result="hardAlpha"/>
<feOffset dy="4.37181"/>
<feGaussianBlur stdDeviation="2.18591"/>
<feColorMatrix type="matrix" values="0 0 0 0 0.54902 0 0 0 0 0.54902 0 0 0 0 0.54902 0 0 0 0.09 0"/>
<feBlend mode="normal" in2="effect1_dropShadow_153_900" result="effect2_dropShadow_153_900"/>
<feColorMatrix in="SourceAlpha" type="matrix" values="0 0 0 0 0 0 0 0 0 0 0 0 0 0 0 0 0 0 127 0" result="hardAlpha"/>
<feOffset dy="8.74362"/>
<feGaussianBlur stdDeviation="2.55022"/>
<feColorMatrix type="matrix" values="0 0 0 0 0.54902 0 0 0 0 0.54902 0 0 0 0 0.54902 0 0 0 0.05 0"/>
<feBlend mode="normal" in2="effect2_dropShadow_153_900" result="effect3_dropShadow_153_900"/>
<feColorMatrix in="SourceAlpha" type="matrix" values="0 0 0 0 0 0 0 0 0 0 0 0 0 0 0 0 0 0 127 0" result="hardAlpha"/>
<feOffset dy="16.03"/>
<feGaussianBlur stdDeviation="3.27886"/>
<feColorMatrix type="matrix" values="0 0 0 0 0.54902 0 0 0 0 0.54902 0 0 0 0 0.54902 0 0 0 0.01 0"/>
<feBlend mode="normal" in2="effect3_dropShadow_153_900" result="effect4_dropShadow_153_900"/>
<feBlend mode="normal" in="SourceGraphic" in2="effect4_dropShadow_153_900" result="shape"/>
</filter>
<filter id="filter1_dddd_153_900" x="252.836" y="-1.45721" width="55.4787" height="66.4082" filterUnits="userSpaceOnUse" color-interpolation-filters="sRGB">
<feFlood flood-opacity="0" result="BackgroundImageFix"/>
<feColorMatrix in="SourceAlpha" type="matrix" values="0 0 0 0 0 0 0 0 0 0 0 0 0 0 0 0 0 0 127 0" result="hardAlpha"/>
<feOffset dy="0.728635"/>
<feGaussianBlur stdDeviation="1.09295"/>
<feColorMatrix type="matrix" values="0 0 0 0 0.54902 0 0 0 0 0.54902 0 0 0 0 0.54902 0 0 0 0.1 0"/>
<feBlend mode="normal" in2="BackgroundImageFix" result="effect1_dropShadow_153_900"/>
<feColorMatrix in="SourceAlpha" type="matrix" values="0 0 0 0 0 0 0 0 0 0 0 0 0 0 0 0 0 0 127 0" result="hardAlpha"/>
<feOffset dy="4.37181"/>
<feGaussianBlur stdDeviation="2.18591"/>
<feColorMatrix type="matrix" values="0 0 0 0 0.54902 0 0 0 0 0.54902 0 0 0 0 0.54902 0 0 0 0.09 0"/>
<feBlend mode="normal" in2="effect1_dropShadow_153_900" result="effect2_dropShadow_153_900"/>
<feColorMatrix in="SourceAlpha" type="matrix" values="0 0 0 0 0 0 0 0 0 0 0 0 0 0 0 0 0 0 127 0" result="hardAlpha"/>
<feOffset dy="9.47225"/>
<feGaussianBlur stdDeviation="2.91454"/>
<feColorMatrix type="matrix" values="0 0 0 0 0.54902 0 0 0 0 0.54902 0 0 0 0 0.54902 0 0 0 0.05 0"/>
<feBlend mode="normal" in2="effect2_dropShadow_153_900" result="effect3_dropShadow_153_900"/>
<feColorMatrix in="SourceAlpha" type="matrix" values="0 0 0 0 0 0 0 0 0 0 0 0 0 0 0 0 0 0 127 0" result="hardAlpha"/>
<feOffset dy="16.03"/>
<feGaussianBlur stdDeviation="3.27886"/>
<feColorMatrix type="matrix" values="0 0 0 0 0.54902 0 0 0 0 0.54902 0 0 0 0 0.54902 0 0 0 0.01 0"/>
<feBlend mode="normal" in2="effect3_dropShadow_153_900" result="effect4_dropShadow_153_900"/>
<feBlend mode="normal" in="SourceGraphic" in2="effect4_dropShadow_153_900" result="shape"/>
</filter>
</defs>
</svg>
